<?xml version="1.0" encoding="UTF-8"?>
<svg version="1.1" xmlns="http://www.w3.org/2000/svg" width="393" height="394">
<path d="M0 0 C1.63418129 -0.00430527 1.63418129 -0.00430527 3.30137634 -0.00869751 C5.59846518 -0.01073415 7.89557153 -0.0052324 10.19262695 0.00732422 C13.70628625 0.02339835 17.21879797 0.00745317 20.73242188 -0.01171875 C22.96745045 -0.00973655 25.20247831 -0.00589336 27.4375 0 C28.48656021 -0.00607269 29.53562042 -0.01214539 30.61647034 -0.0184021 C37.29675265 0.0459741 40.77940036 0.92451402 45.90234375 5.3359375 C49.48860174 9.5625987 48.80070011 14.7346083 48.79951477 20.032547 C48.80319146 20.91307305 48.80686815 21.79359909 48.81065625 22.70080775 C48.82168655 25.65707108 48.8255358 28.61329925 48.8293457 31.56958008 C48.83561074 33.68686535 48.84225758 35.80414953 48.84925842 37.9214325 C48.87029263 44.87860347 48.88065873 51.83577465 48.890625 58.79296875 C48.89467249 61.18754272 48.89878941 63.58211656 48.90297508 65.97669029 C48.92202362 77.22405021 48.9362566 88.47140357 48.94458705 99.71877652 C48.95436517 112.70642973 48.98070124 125.69391276 49.02108794 138.68150598 C49.05122867 148.71813249 49.06605391 158.75471016 49.06936806 168.79138106 C49.07172046 174.7870871 49.08070606 180.78261127 49.10582924 186.77826881 C49.1290797 192.41798322 49.13335525 198.05739559 49.12306786 203.69714546 C49.12257169 205.76635491 49.12891593 207.83557909 49.1426239 209.90474319 C49.16030122 212.73131725 49.15325705 215.55680243 49.14009094 218.38337708 C49.15106019 219.20070354 49.16202943 220.01803 49.17333108 220.86012393 C49.1101331 226.48610351 47.88038661 229.76402132 44.65234375 234.3984375 C39.43044953 238.3179888 33.63782363 237.84969656 27.375 237.83203125 C26.29028915 237.8372731 25.20557831 237.84251495 24.08799744 237.84791565 C21.79931492 237.8543248 19.51059942 237.85301325 17.22192383 237.84448242 C13.73003181 237.83597451 10.2397774 237.86474808 6.74804688 237.89648438 C4.51953174 237.89809665 2.29101372 237.89751835 0.0625 237.89453125 C-0.97623764 237.90576523 -2.01497528 237.91699921 -3.08518982 237.92857361 C-9.35683918 237.8686088 -13.35535576 237.33269647 -18.34765625 233.3984375 C-21.56952376 228.3776341 -21.7774774 224.2501241 -21.7353363 218.4858551 C-21.74072184 217.59953665 -21.74610738 216.7132182 -21.75165612 215.80004162 C-21.7659409 212.83603478 -21.75883064 209.87247421 -21.75170898 206.90844727 C-21.75741226 204.78101238 -21.76437636 202.65358056 -21.77250671 200.52615356 C-21.79045761 194.75138555 -21.78926609 188.97676933 -21.78356433 183.20198178 C-21.78047535 178.38079258 -21.78656168 173.55963265 -21.79260308 168.73844761 C-21.80665298 157.36491364 -21.80508305 145.99145477 -21.79370117 134.61791992 C-21.78221859 122.88447073 -21.79629705 111.15125008 -21.82309765 99.417831 C-21.84524836 89.34293303 -21.85189345 79.26810682 -21.84602123 69.19318622 C-21.84264908 63.17629235 -21.84508407 57.15954499 -21.86227226 51.14267159 C-21.87772922 45.48484505 -21.87379944 39.82735731 -21.85496712 34.16954422 C-21.85127785 32.09389371 -21.8543995 30.01821818 -21.86485291 27.94259071 C-21.87804111 25.10733716 -21.86653433 22.27320878 -21.84886169 19.43800354 C-21.8584667 18.61815037 -21.86807171 17.7982972 -21.87796777 16.95359999 C-21.80584282 11.32330206 -20.57820822 8.03677126 -17.34765625 3.3984375 C-12.11056203 -0.54385097 -6.28287061 -0.03643995 0 0 Z " fill="#B966F1" transform="translate(336.34765625,149.6015625)"/>
<path d="M0 0 C0.89798309 -0.00960754 1.79596619 -0.01921509 2.72116089 -0.02911377 C3.67958893 -0.03336365 4.63801697 -0.03761353 5.62548828 -0.04199219 C7.1215007 -0.0505423 7.1215007 -0.0505423 8.6477356 -0.05926514 C10.75407863 -0.06869428 12.86043628 -0.07524081 14.96679688 -0.07910156 C18.17750912 -0.08881187 21.38758221 -0.1198573 24.59814453 -0.15136719 C26.648922 -0.1578975 28.69970402 -0.16314786 30.75048828 -0.16699219 C31.70486786 -0.17933899 32.65924744 -0.19168579 33.64254761 -0.20440674 C40.05161841 -0.18313667 45.0358468 0.53316962 50.19580078 4.66113281 C52.75335706 8.07120785 52.45558895 11.5831415 52.47470093 15.66963196 C52.48127431 16.66555533 52.48127431 16.66555533 52.48798048 17.68159837 C52.50135653 19.91086338 52.5075446 22.14008888 52.51367188 24.36938477 C52.52157369 25.96598489 52.5298427 27.56258323 52.53845215 29.15917969 C52.56465982 34.40590715 52.57997707 39.65264256 52.59423828 44.89941406 C52.5995982 46.70554293 52.60497571 48.51167175 52.61037064 50.31780052 C52.6319962 57.82997223 52.65073354 65.34214179 52.66199303 72.85433674 C52.67823731 83.6214361 52.71143028 94.38817489 52.76839387 105.15513831 C52.80708106 112.725506 52.82662418 120.2957772 52.83191359 127.86624116 C52.83556832 132.38816226 52.84760246 136.90969869 52.88001633 141.43151283 C52.91007617 145.68583053 52.91641647 149.93953036 52.90463257 154.19393158 C52.90441167 155.75400533 52.91273064 157.31410758 52.93028641 158.87408257 C53.07130292 172.12751499 53.07130292 172.12751499 50.09683228 176.01091003 C45.86541916 179.2884236 42.66955358 180.40665957 37.3503418 180.43579102 C36.38906876 180.44532303 35.42779572 180.45485504 34.43739319 180.4646759 C32.89661354 180.46330879 32.89661354 180.46330879 31.32470703 180.46191406 C30.25840561 180.46619919 29.19210419 180.47048431 28.0934906 180.47489929 C25.84171254 180.48063419 23.58991595 180.48114905 21.33813477 180.47680664 C17.89909163 180.47364732 14.46090948 180.49711493 11.02197266 180.52246094 C8.83121853 180.52473412 6.6404621 180.52543734 4.44970703 180.52441406 C3.42454483 180.53362381 2.39938263 180.54283356 1.34315491 180.55232239 C-4.02380211 180.51765962 -8.18175174 180.42235177 -12.67919922 177.16113281 C-16.15004666 172.77538756 -17.18002737 169.89640272 -17.18713379 164.32983398 C-17.19337375 163.66740535 -17.19961371 163.00497671 -17.20604277 162.32247448 C-17.22192194 160.11598165 -17.2093898 157.91060141 -17.19677734 155.70410156 C-17.20220077 154.11690632 -17.20932467 152.52971611 -17.21801758 150.9425354 C-17.23622779 146.64084619 -17.22919302 142.33954141 -17.21650124 138.03784561 C-17.2063616 133.53230008 -17.21576959 129.02678708 -17.2220459 124.52124023 C-17.2293195 116.9555064 -17.21974216 109.38992885 -17.20068359 101.82421875 C-17.17891537 93.08199254 -17.18596694 84.3401395 -17.20798922 75.59792233 C-17.22615142 68.08690927 -17.22869754 60.57600843 -17.21823454 53.06498051 C-17.21200411 48.58121183 -17.21115155 44.09761845 -17.22438049 39.61386108 C-17.23595036 35.39808085 -17.22789279 31.18278091 -17.20480347 26.96705246 C-17.1995224 25.42152071 -17.20101988 23.87594842 -17.20985413 22.33043289 C-17.22081805 20.21722347 -17.20703894 18.10554408 -17.18713379 15.99243164 C-17.18562569 14.8111116 -17.18411758 13.62979156 -17.18256378 12.41267395 C-16.56737571 8.43879601 -15.17333017 6.28267374 -12.67919922 3.16113281 C-8.5430103 0.40367353 -4.89093473 0.04254351 0 0 Z " fill="#EAACFC" transform="translate(228.67919921875,206.8388671875)"/>
<path d="M0 0 C2.4375 1.625 2.4375 1.625 3.49560547 5.38476562 C4.72297277 11.57021835 5.32177473 17.82399386 5.9453125 24.09375 C6.07565887 25.36923706 6.20600525 26.64472412 6.34030151 27.9588623 C6.61425694 30.64460373 6.88445778 33.33068781 7.15185547 36.01708984 C7.49249772 39.43684097 7.84197385 42.8556193 8.19421577 46.27419281 C8.53246044 49.56775645 8.86360595 52.86202137 9.1953125 56.15625 C9.32028107 57.37211792 9.44524963 58.58798584 9.57400513 59.84069824 C10.19439214 66.12536649 10.77572192 72.31043752 10.4375 78.625 C9.7775 79.285 9.1175 79.945 8.4375 80.625 C1.75928122 80.55507101 -3.15298475 77.4098356 -8.8125 74.125 C-10.58740591 73.11258959 -12.36340081 72.10208528 -14.140625 71.09375 C-14.91825195 70.64451172 -15.69587891 70.19527344 -16.49707031 69.73242188 C-18.65643949 68.49947062 -18.65643949 68.49947062 -21.5625 67.625 C-21.81902344 68.18058594 -22.07554687 68.73617187 -22.33984375 69.30859375 C-23.73579109 71.95331187 -25.36300391 74.27053971 -27.125 76.6875 C-27.74503906 77.54472656 -28.36507813 78.40195313 -29.00390625 79.28515625 C-36.04675593 88.58285498 -43.62946955 96.98906595 -51.91040039 105.17871094 C-53.6316651 106.88159392 -55.3446666 108.59246929 -57.05664062 110.3046875 C-110.04361034 163.12609686 -182.81508658 199.28743686 -254.8125 218 C-255.46290253 218.16971313 -256.11330505 218.33942627 -256.78341675 218.51428223 C-283.88141943 225.5363303 -283.88141943 225.5363303 -290.8125 221.9375 C-294.36383943 218.95114639 -295.33344096 216.47878015 -295.8984375 211.90625 C-295.95662371 207.76339193 -295.91844919 204.47927807 -294.3125 200.625 C-291.4162328 198.51862385 -289.55522765 197.97406891 -286.109375 197.15234375 C-285.03204102 196.89437012 -283.95470703 196.63639648 -282.84472656 196.37060547 C-279.89097091 195.69961694 -276.93394298 195.05954868 -273.96875 194.44140625 C-245.52403543 188.48241246 -217.96511093 178.70368806 -191.5625 166.625 C-190.00015625 165.9139209 -190.00015625 165.9139209 -188.40625 165.18847656 C-156.19133257 150.41343631 -124.9299192 132.26910827 -97.5625 109.625 C-96.28052734 108.60212891 -96.28052734 108.60212891 -94.97265625 107.55859375 C-87.51302671 101.57590664 -80.49186414 95.20524179 -73.5625 88.625 C-73.02334961 88.11984863 -72.48419922 87.61469727 -71.92871094 87.09423828 C-65.14201348 80.709519 -59.05827677 74.016907 -53.375 66.625 C-52.82199219 65.90675049 -52.26898438 65.18850098 -51.69921875 64.44848633 C-49.09118868 60.97015727 -46.89756578 57.81858086 -45.5625 53.625 C-46.10664551 53.34825439 -46.65079102 53.07150879 -47.21142578 52.78637695 C-49.70754098 51.51125113 -52.19748496 50.22449458 -54.6875 48.9375 C-55.5434375 48.50244141 -56.399375 48.06738281 -57.28125 47.61914062 C-62.23680136 45.04606588 -66.42926511 42.38556617 -70.5625 38.625 C-70.5625 36.4375 -70.5625 36.4375 -69.5625 33.625 C-62.98261856 29.04657526 -55.80238685 25.60778446 -48.63671875 22.046875 C-47.3996594 21.4289427 -46.16274894 20.81071226 -44.92597961 20.19219971 C-42.3512169 18.90559519 -39.77514581 17.62166396 -37.19799805 16.33984375 C-33.89620413 14.69749112 -30.597108 13.04980414 -27.29887676 11.40031052 C-24.75266653 10.12734126 -22.20541998 8.856458 -19.65781593 7.58628082 C-18.44034837 6.97913578 -17.22312081 6.37150922 -16.00613976 5.76338959 C-14.3106799 4.91674347 -12.61374724 4.07304865 -10.91674805 3.22949219 C-9.95270554 2.74937683 -8.98866302 2.26926147 -7.9954071 1.77459717 C-3.23722275 -0.47373991 -3.23722275 -0.47373991 0 0 Z " fill="#833BE9" transform="translate(337.5625,7.375)"/>
<path d="M0 0 C1.45916084 -0.00855011 1.45916084 -0.00855011 2.94779968 -0.01727295 C5.00286783 -0.0267019 7.05795096 -0.03324855 9.11303711 -0.03710938 C12.24034279 -0.0468087 15.36698917 -0.07784981 18.49414062 -0.109375 C20.49608987 -0.11590648 22.49804379 -0.12115638 24.5 -0.125 C25.89101677 -0.1435202 25.89101677 -0.1435202 27.31013489 -0.16241455 C32.73390526 -0.14400533 38.35474895 0.01455592 42.94921875 3.203125 C47.70734654 8.49132449 47.52055089 13.32338113 47.46679688 20.0703125 C47.47380615 21.15395081 47.48081543 22.23758911 47.48803711 23.35406494 C47.50561375 26.92901381 47.49399476 30.50316835 47.48046875 34.078125 C47.48316374 36.56624503 47.48704622 39.05436404 47.49206543 41.54248047 C47.49871449 47.42137637 47.48473433 53.29998494 47.46346235 59.17883873 C47.44844403 63.86218059 47.45375702 68.54518624 47.47070312 73.22851562 C47.49389328 79.69347881 47.49752347 86.1581173 47.48448181 92.62310791 C47.48181472 95.08547034 47.48508362 97.54784662 47.49440002 100.01019287 C47.50456604 103.45247996 47.48906206 106.89372775 47.46679688 110.3359375 C47.4748938 111.35222229 47.48299072 112.36850708 47.49133301 113.41558838 C47.42058908 119.32359046 46.88015308 122.70126012 42.94921875 127.203125 C37.66078193 131.03007059 32.12668848 130.63882498 25.85546875 130.6015625 C24.25813904 130.60586777 24.25813904 130.60586777 22.62854004 130.61026001 C20.38272569 130.61229657 18.13689345 130.60679533 15.89111328 130.59423828 C12.46085811 130.57817949 9.03178118 130.59410153 5.6015625 130.61328125 C3.41536199 130.61129875 1.22916222 130.60745493 -0.95703125 130.6015625 C-2.49006897 130.61067154 -2.49006897 130.61067154 -4.05407715 130.6199646 C-10.68527805 130.55472532 -15.10465597 129.87858667 -20.17921448 125.27023315 C-22.9613864 120.7108328 -22.60168299 116.58674436 -22.55249023 111.34179688 C-22.55789322 110.24694473 -22.5632962 109.15209259 -22.56886292 108.02406311 C-22.58136619 104.40639177 -22.56484756 100.78951373 -22.546875 97.171875 C-22.54702995 94.65751097 -22.54851825 92.14314669 -22.55128479 89.62878418 C-22.5526695 84.35969375 -22.54053256 79.09080875 -22.51733398 73.82177734 C-22.49072553 67.73627528 -22.48897792 61.65115453 -22.50072235 55.56561422 C-22.51151422 49.70348806 -22.50520055 43.84150084 -22.49116707 37.97938538 C-22.48664914 35.48829041 -22.48631874 32.99718424 -22.49023247 30.50608826 C-22.49314109 27.02530895 -22.4766533 23.54515362 -22.45483398 20.06445312 C-22.45933563 19.03365128 -22.46383728 18.00284943 -22.46847534 16.94081116 C-22.37778087 8.23778451 -22.37778087 8.23778451 -19.05078125 4.203125 C-13.72132032 -0.77103854 -6.85730556 0.03122153 0 0 Z " fill="#ECAFFC" transform="translate(131.05078125,256.796875)"/>
<path d="M0 0 C1.06475555 -0.0127597 2.12951111 -0.02551941 3.22653198 -0.03866577 C4.95155441 -0.04200424 4.95155441 -0.04200424 6.71142578 -0.04541016 C7.893909 -0.05206696 9.07639221 -0.05872375 10.29470825 -0.06558228 C12.79801882 -0.07571496 15.30135644 -0.08039911 17.8046875 -0.08007812 C21.63473057 -0.08444755 25.46361822 -0.1207527 29.29345703 -0.15869141 C31.72444267 -0.16456011 34.15543379 -0.16852914 36.58642578 -0.17041016 C38.30537552 -0.19196671 38.30537552 -0.19196671 40.05905151 -0.21395874 C47.97217587 -0.16849769 47.97217587 -0.16849769 51.91894531 2.06933594 C55.03170989 5.78099153 56.01977296 8.36187983 56.19580078 13.19677734 C56.23479492 14.22601318 56.27378906 15.25524902 56.31396484 16.31567383 C56.34458008 17.46237549 56.37519531 18.60907715 56.40673828 19.79052734 C56.44250977 21.00490479 56.47828125 22.21928223 56.51513672 23.47045898 C56.8491427 36.03656415 56.94907826 48.61027619 57.01190186 61.18017578 C57.02510538 63.54169793 57.04303488 65.90319848 57.06573486 68.26464844 C57.09566922 71.62627089 57.10539606 74.98737997 57.10986328 78.34912109 C57.12215973 79.36368881 57.13445618 80.37825653 57.14712524 81.42356873 C57.13037474 86.80479595 56.85107108 90.66219023 53.78173828 95.29052734 C49.42844633 99.42057356 46.08169173 100.40078227 40.21606445 100.45166016 C39.31800583 100.4612677 38.4199472 100.47087524 37.49467468 100.48077393 C36.53108536 100.4850238 35.56749603 100.48927368 34.57470703 100.49365234 C33.57595047 100.49935242 32.57719391 100.50505249 31.548172 100.51092529 C29.43585262 100.52036463 27.32351859 100.52690504 25.21118164 100.53076172 C21.99159849 100.54045999 18.77265587 100.57149084 15.55322266 100.60302734 C13.49788789 100.60955861 11.44254858 100.61480859 9.38720703 100.61865234 C8.4296904 100.63099915 7.47217377 100.64334595 6.48564148 100.65606689 C-0.25130461 100.63378821 -5.33819804 100.09053332 -10.37886047 95.18998718 C-12.73626611 91.47399373 -12.78137272 88.37010874 -12.73583984 84.10717773 C-12.74284912 83.29678543 -12.7498584 82.48639313 -12.75708008 81.65144348 C-12.77464494 78.98000537 -12.76304197 76.30963197 -12.74951172 73.63818359 C-12.75220734 71.77640073 -12.75609034 69.91461924 -12.7611084 68.05284119 C-12.76700161 64.15317363 -12.75844719 60.25387291 -12.73974609 56.35424805 C-12.71697247 51.36285936 -12.73007059 46.37233178 -12.75403595 41.38097477 C-12.76851226 37.53671316 -12.76387927 33.6926546 -12.75352478 29.84838676 C-12.75086174 28.00843643 -12.75411238 26.1684675 -12.76344299 24.32853889 C-12.77363713 21.75295556 -12.75806773 19.1787524 -12.73583984 16.60327148 C-12.74393677 15.84723633 -12.75203369 15.09120117 -12.76037598 14.31225586 C-12.67845846 9.17167553 -11.48234417 6.23661445 -8.21826172 2.29052734 C-4.90824292 0.08384814 -3.85528374 0.03134848 0 0 Z " fill="#EDD9F5" transform="translate(18.21826171875,286.70947265625)"/>
</svg>
