<?xml version="1.0" encoding="UTF-8"?>
<svg version="1.1" xmlns="http://www.w3.org/2000/svg" width="405" height="402">
<path d="M0 0 C2.90790561 0.01386107 5.81257929 -0.0203044 8.72021484 -0.05834961 C20.14458411 -0.10588648 29.50428238 1.01407034 40.04443359 5.57641602 C40.80433594 5.89650635 41.56423828 6.21659668 42.34716797 6.54638672 C72.66454695 20.12044782 100.59850293 46.46845403 112.90576172 77.7668457 C115.97854803 86.47307359 118.18381963 94.91956471 118.28271484 104.19360352 C118.29078659 104.92781525 118.29885834 105.66202698 118.30717468 106.41848755 C118.32096971 107.97338539 118.33171224 109.52831293 118.33959961 111.08325195 C118.35102523 112.64421725 118.37132444 114.20514647 118.40112305 115.76586914 C118.6971581 131.31184383 115.72227331 144.39582697 109.04443359 158.57641602 C108.41794922 159.9105957 108.41794922 159.9105957 107.77880859 161.27172852 C103.90651188 168.90504904 98.75403887 175.35362693 93.36669922 181.94995117 C91.52182559 184.21925473 89.7251653 186.52591382 87.91943359 188.82641602 C84.56578348 193.00990593 81.03501211 197.00447957 77.41552734 200.95922852 C75.5153456 203.05662846 73.66134969 205.17923607 71.81396484 207.32250977 C67.81710068 211.89831137 63.59153699 216.22093257 59.29443359 220.51391602 C58.50528564 221.3029834 57.7161377 222.09205078 56.90307617 222.9050293 C51.22054356 228.53232395 45.40494526 233.72089588 39.04443359 238.57641602 C38.16013672 239.28540039 37.27583984 239.99438477 36.36474609 240.72485352 C32.23340439 244.02158073 29.50369033 244.98807607 24.06787109 244.82641602 C19.52147779 244.26469947 16.74311851 242.35063443 13.73193359 239.01391602 C11.43116096 235.69057777 10.84731951 233.8345585 10.73193359 229.82641602 C10.69455078 228.98594727 10.65716797 228.14547852 10.61865234 227.27954102 C11.59100559 221.10643598 16.29926191 217.09812492 20.79443359 213.13891602 C21.28169922 212.69999023 21.76896484 212.26106445 22.27099609 211.80883789 C24.46848551 209.83622109 26.68405983 207.88678083 28.92163086 205.9597168 C40.64450423 195.83495855 51.5104785 184.78452924 61.04443359 172.57641602 C62.1008169 171.29356756 63.16101665 170.01385641 64.22412109 168.73657227 C79.00206221 150.94698285 89.80134772 132.64987771 88.04443359 108.57641602 C86.09926821 88.74120847 75.90923939 73.19333156 63.04443359 58.57641602 C62.25552734 57.66182617 62.25552734 57.66182617 61.45068359 56.72875977 C47.31045984 41.47030403 27.28060766 30.79409378 6.58740234 29.41235352 C-25.00156937 28.37043841 -48.09255162 49.27717494 -69.85400391 69.59985352 C-83.42480238 82.52843951 -83.42480238 82.52843951 -95.68212891 96.67797852 C-97.4552547 98.93856157 -99.25844441 101.14942086 -101.10400391 103.34985352 C-116.85228451 122.19924325 -126.6477394 140.27704276 -124.95556641 165.57641602 C-123.07947463 181.92256219 -114.7047556 195.68463104 -104.95556641 208.57641602 C-104.41673828 209.30086914 -103.87791016 210.02532227 -103.32275391 210.77172852 C-96.37852623 219.39094578 -86.69455329 225.88953279 -77.45556641 231.82641602 C-68.10667724 238.01318091 -68.10667724 238.01318091 -65.95556641 242.57641602 C-64.87268471 247.99082452 -65.01714361 252.8665282 -68.08056641 257.57641602 C-71.46256361 261.53791275 -74.96417284 263.21796517 -80.08056641 264.13891602 C-95.08120069 261.96140459 -108.351105 248.57388805 -118.95556641 238.57641602 C-120.04224609 237.58641602 -120.04224609 237.58641602 -121.15087891 236.57641602 C-140.77313082 218.00912388 -155.16978352 191.81042129 -156.17431641 164.53735352 C-156.87664705 134.37424014 -147.96065583 111.84653647 -128.95556641 88.57641602 C-128.21306641 87.65086914 -127.47056641 86.72532227 -126.70556641 85.77172852 C-124.48206896 83.01688058 -122.22594157 80.29275773 -119.95556641 77.57641602 C-119.51083984 77.04000488 -119.06611328 76.50359375 -118.60791016 75.95092773 C-111.81484278 67.79045476 -104.64783775 60.08847779 -97.14306641 52.57641602 C-96.35496582 51.78750977 -95.56686523 50.99860352 -94.75488281 50.18579102 C-76.89088814 32.49106983 -55.80506956 13.47396735 -31.95556641 4.57641602 C-30.68011963 4.05446655 -30.68011963 4.05446655 -29.37890625 3.52197266 C-19.67053458 -0.02001561 -10.23464738 -0.06795572 0 0 Z " fill="#AD68B4" transform="translate(285.95556640625,-0.576416015625)"/>
<path d="M0 0 C22.96434793 18.80953028 42.80095306 44.80093662 47.02539062 74.94067383 C49.99685223 112.33156568 38.28845899 138.66264324 14.3515625 166.80444336 C10.82295674 170.91739625 7.22411816 174.96391943 3.57226562 178.96801758 C1.69479844 181.04941655 -0.14234046 183.15575748 -1.97460938 185.27661133 C-5.64682946 189.4792523 -9.49536308 193.47404762 -13.44335938 197.41723633 C-14.14364258 198.11671387 -14.84392578 198.81619141 -15.56542969 199.53686523 C-21.01096468 204.91867323 -26.67258639 209.74912898 -32.69335938 214.47973633 C-34.61322473 216.10095597 -36.52975225 217.72613452 -38.44335938 219.35473633 C-40.51924824 221.07354033 -42.5990409 222.78379706 -44.69335938 224.47973633 C-45.52794678 225.15721924 -45.52794678 225.15721924 -46.37939453 225.84838867 C-53.53821361 231.58066788 -60.87032732 236.40781711 -69.13085938 240.41723633 C-70.20122437 240.94716187 -70.20122437 240.94716187 -71.29321289 241.48779297 C-83.73202547 247.22804305 -96.40683797 249.15673084 -109.97509766 249.0012207 C-112.19349328 248.97973503 -114.40865302 249.00118669 -116.62695312 249.02661133 C-129.69461578 249.05385179 -142.48063592 246.98573892 -154.06835938 240.60473633 C-155.05956787 240.08266602 -155.05956787 240.08266602 -156.07080078 239.55004883 C-157.95693926 238.54681311 -159.82673699 237.51872513 -161.69335938 236.47973633 C-162.64210937 235.9615332 -163.59085938 235.44333008 -164.56835938 234.90942383 C-170.77083664 231.36238214 -176.25554699 227.09931989 -181.69335938 222.47973633 C-182.89605469 221.46266602 -182.89605469 221.46266602 -184.12304688 220.42504883 C-202.756949 204.17247604 -216.28010876 185.15616466 -223.69335938 161.47973633 C-224.0357666 160.43841553 -224.37817383 159.39709473 -224.73095703 158.32421875 C-225.80648552 154.0278344 -226.04971247 150.15501567 -226.09960938 145.74926758 C-226.11354736 144.9248819 -226.12748535 144.10049622 -226.1418457 143.25112915 C-226.17653055 140.59795632 -226.18928861 137.94562656 -226.19335938 135.29223633 C-226.19537354 134.38990265 -226.1973877 133.48756897 -226.19946289 132.55789185 C-226.17898674 119.0398675 -225.47081358 106.90935629 -219.69335938 94.47973633 C-219.41492188 93.83504395 -219.13648438 93.19035156 -218.84960938 92.52612305 C-213.75337009 80.89737797 -205.7087025 71.21330063 -197.69335938 61.47973633 C-197.17773438 60.85228516 -196.66210938 60.22483398 -196.13085938 59.57836914 C-186.98517045 48.50503169 -177.34525931 37.95152484 -167.19335938 27.79223633 C-166.30777344 26.8944043 -165.4221875 25.99657227 -164.50976562 25.0715332 C-159.76399855 20.31531289 -154.97106466 15.9226358 -149.56762695 11.9230957 C-147.44692891 10.35405827 -147.44692891 10.35405827 -144.88085938 7.66723633 C-141.44050409 4.22688104 -139.72738767 3.56312571 -134.81835938 3.16723633 C-130.80775745 3.28651073 -128.08542281 4.24405815 -124.69335938 6.47973633 C-121.13060437 10.42765404 -119.53300872 12.94454855 -119.38085938 18.22973633 C-119.32478516 19.49043945 -119.32478516 19.49043945 -119.26757812 20.77661133 C-120.23993137 26.94971636 -124.9481877 30.95802743 -129.44335938 34.91723633 C-129.930625 35.35616211 -130.41789062 35.79508789 -130.91992188 36.24731445 C-133.1174113 38.21993125 -135.33298561 40.16937151 -137.57055664 42.09643555 C-149.29343001 52.22119379 -160.15940428 63.2716231 -169.69335938 75.47973633 C-170.74974268 76.76258478 -171.80994243 78.04229594 -172.87304688 79.31958008 C-187.56003507 96.99968096 -198.64635442 115.46205263 -196.69335938 139.47973633 C-194.34370006 162.84395429 -179.95688821 183.22700434 -162.48242188 198.28833008 C-144.35289799 212.53295599 -125.3297666 220.55462087 -102.00585938 217.79223633 C-85.38743442 215.21351521 -73.24534738 207.76577762 -60.66210938 197.01489258 C-57.87803304 194.63743792 -55.04755321 192.33461327 -52.19335938 190.04223633 C-38.504466 178.84045233 -25.06887179 166.43167171 -14.10351562 152.51489258 C-12.20971415 150.12999186 -10.28377264 147.79737677 -8.31445312 145.47583008 C7.82661159 126.38570957 18.03248736 108.28255967 16.30664062 82.47973633 C14.43054885 66.13359015 6.05582982 52.3715213 -3.69335938 39.47973633 C-4.2321875 38.7552832 -4.77101562 38.03083008 -5.32617188 37.28442383 C-12.27039955 28.66520656 -21.95437249 22.16661956 -31.19335938 16.22973633 C-40.56140502 10.03029435 -40.56140502 10.03029435 -42.69335938 5.47973633 C-43.68378298 0.10315103 -43.38408116 -4.08765553 -41.00585938 -9.02026367 C-27.71103802 -23.39304352 -11.74234739 -9.33085586 0 0 Z " fill="#9658B5" transform="translate(228.693359375,152.520263671875)"/>
</svg>
