<?xml version="1.0" encoding="UTF-8"?>
<svg version="1.1" xmlns="http://www.w3.org/2000/svg" width="401" height="390">
<path d="M0 0 C1.19473938 -0.00281982 2.38947876 -0.00563965 3.62042236 -0.00854492 C4.95642105 -0.00660033 6.29241958 -0.00455214 7.62841797 -0.00241089 C9.02594041 -0.0037649 10.42346249 -0.00554484 11.82098389 -0.00772095 C15.62666441 -0.01229527 19.43231794 -0.01050573 23.23799896 -0.00734186 C27.21205216 -0.00481826 31.18610297 -0.0071558 35.16015625 -0.00872803 C41.83512794 -0.01054972 48.51008858 -0.00814342 55.18505859 -0.00338745 C62.91321511 0.00205517 70.64134524 0.00029251 78.36950111 -0.00521386 C84.99283894 -0.00974499 91.6161688 -0.01039553 98.23950768 -0.00777519 C102.20054939 -0.00621241 106.1615787 -0.00601865 110.12261963 -0.00931168 C113.84568777 -0.0121904 117.56872176 -0.01021469 121.29178619 -0.00441742 C122.66204013 -0.00308983 124.03229692 -0.00348393 125.40254974 -0.00568008 C127.2654358 -0.00839158 129.1283281 -0.00439678 130.99121094 0 C132.03614716 0.00037703 133.08108337 0.00075405 134.15768433 0.0011425 C136.49560547 0.12698364 136.49560547 0.12698364 137.49560547 1.12698364 C137.59638667 3.49096833 137.63533762 5.82509675 137.62841797 8.18948364 C137.62937469 8.89597046 137.63033142 9.60245728 137.63131714 10.33035278 C137.63199879 11.82669158 137.63014551 13.32303331 137.62597656 14.81936646 C137.62062804 17.11728521 137.62592198 19.4150085 137.63232422 21.71292114 C137.63166343 23.16344241 137.63038227 24.61396355 137.62841797 26.06448364 C137.6304422 26.75614624 137.63246643 27.44780884 137.634552 28.16043091 C137.61055771 33.0120314 137.61055771 33.0120314 136.49560547 34.12698364 C134.4229847 34.21465477 132.34740253 34.23394237 130.27294922 34.22463989 C129.01289063 34.22141724 127.75283203 34.21819458 126.45458984 34.21487427 C125.11409438 34.20651768 123.77359959 34.19805272 122.43310547 34.18948364 C121.08870605 34.18447024 119.74430487 34.17990706 118.39990234 34.17581177 C115.09842606 34.16397852 111.79703744 34.14749335 108.49560547 34.12698364 C109.04990234 35.20077271 109.60419922 36.27456177 110.17529297 37.38088989 C110.90738805 38.81692255 111.6391407 40.25312982 112.37060547 41.68948364 C112.9178125 42.74619263 112.9178125 42.74619263 113.47607422 43.82424927 C115.69502743 48.20163879 117.30627503 52.36340225 118.49560547 57.12698364 C120.42726562 57.21786255 120.42726562 57.21786255 122.39794922 57.31057739 C124.07634706 57.39496611 125.75473183 57.47961494 127.43310547 57.56448364 C128.70831055 57.62345825 128.70831055 57.62345825 130.00927734 57.68362427 C130.81816406 57.7255188 131.62705078 57.76741333 132.46044922 57.81057739 C133.58374634 57.86556396 133.58374634 57.86556396 134.72973633 57.92166138 C136.49560547 58.12698364 136.49560547 58.12698364 137.49560547 59.12698364 C137.5964331 61.5635881 137.6353315 63.97123065 137.62841797 66.40823364 C137.62937469 67.1369165 137.63033142 67.86559937 137.63131714 68.61636353 C137.63199882 70.15978074 137.63014535 71.70320081 137.62597656 73.24661255 C137.62062809 75.61695764 137.62592189 77.98711324 137.63232422 80.35745239 C137.63166344 81.85354656 137.63038227 83.34964062 137.62841797 84.84573364 C137.63145432 85.91603821 137.63145432 85.91603821 137.634552 87.00796509 C137.61055738 92.01203173 137.61055738 92.01203173 136.49560547 93.12698364 C135.15293134 93.21330239 133.80586225 93.23404838 132.46044922 93.22463989 C131.6515625 93.22141724 130.84267578 93.21819458 130.00927734 93.21487427 C129.15914062 93.20649536 128.30900391 93.19811646 127.43310547 93.18948364 C126.57910156 93.18497192 125.72509766 93.18046021 124.84521484 93.17581177 C122.72864883 93.16398738 120.61211862 93.14605133 118.49560547 93.12698364 C118.36025391 93.77022583 118.22490234 94.41346802 118.08544922 95.07620239 C113.91305631 112.59025884 102.38826253 128.70714052 87.43310547 138.75198364 C73.6931852 147.04231528 60.59248197 151.61724384 44.49560547 151.12698364 C46.62116152 154.99576305 49.0131571 157.86629316 52.16650391 160.94558716 C52.62696609 161.39830994 53.08742828 161.85103271 53.56184387 162.31747437 C54.55495154 163.29302065 55.55026686 164.26632368 56.54756927 165.23758125 C58.12443279 166.77485382 59.69351548 168.31968074 61.26055908 169.86695862 C65.71415942 174.26264717 70.1775108 178.64824096 74.65527344 183.01931763 C77.3990471 185.69878318 80.13060184 188.3901976 82.85474396 191.08961296 C83.89478593 192.11537302 84.93948474 193.13643318 85.98882294 194.15268135 C87.45120867 195.56954446 88.89718955 197.00328109 90.34228516 198.43777466 C91.1704071 199.24876114 91.99852905 200.05974762 92.85174561 200.89530945 C94.49560547 203.12698364 94.49560547 203.12698364 94.37628174 205.2794342 C93.17777963 207.79374278 91.60789518 209.33473783 89.49560547 211.12698364 C88.83560547 211.12698364 88.17560547 211.12698364 87.49560547 211.12698364 C87.16560547 212.11698364 86.83560547 213.10698364 86.49560547 214.12698364 C85.83560547 214.12698364 85.17560547 214.12698364 84.49560547 214.12698364 C84.16560547 215.11698364 83.83560547 216.10698364 83.49560547 217.12698364 C81.75341797 218.84573364 81.75341797 218.84573364 79.62060547 220.62698364 C76.64752186 223.10911846 76.64752186 223.10911846 73.98779297 225.90823364 C73.49537109 226.31042114 73.00294922 226.71260864 72.49560547 227.12698364 C67.77174861 226.48185611 65.22459271 223.2466732 62.03051758 219.98660278 C61.39101669 219.34593369 60.75151581 218.70526459 60.09263611 218.04518127 C57.97902839 215.92438204 55.87613518 213.79327044 53.77294922 211.66213989 C52.3068446 210.18789986 50.84000184 208.71439356 49.37245178 207.24159241 C45.50872111 203.36073107 41.65364182 199.47139281 37.80072021 195.57980347 C31.63195989 189.35188564 25.45051907 183.13655964 19.26849556 176.92181206 C17.10813112 174.74746856 14.95161696 172.56936281 12.79563904 170.39067078 C11.47427543 169.05928436 10.15283296 167.72797619 8.83129883 166.39675903 C8.23122009 165.78837189 7.63114136 165.17998474 7.01287842 164.55316162 C4.60261399 162.1300082 2.34902317 160.02926211 -0.50439453 158.12698364 C-0.50439453 157.46698364 -0.50439453 156.80698364 -0.50439453 156.12698364 C-1.12314453 155.85885864 -1.74189453 155.59073364 -2.37939453 155.31448364 C-4.50439453 154.12698364 -4.50439453 154.12698364 -6.50439453 151.12698364 C-6.68766146 148.59661067 -6.7607034 146.17927596 -6.73486328 143.65042114 C-6.73417595 142.56164169 -6.73417595 142.56164169 -6.73347473 141.4508667 C-6.73045737 139.91938641 -6.72258647 138.38790905 -6.71020508 136.85647583 C-6.69190887 134.50382713 -6.68969572 132.15157117 -6.68994141 129.79885864 C-6.68502756 128.31187605 -6.67919983 126.82489614 -6.67236328 125.33792114 C-6.67125046 124.63065887 -6.67013763 123.92339661 -6.66899109 123.19470215 C-6.62045898 118.24304809 -6.62045898 118.24304809 -5.50439453 117.12698364 C-3.77785361 117.01948408 -2.04698499 116.98073209 -0.31713867 116.9692688 C0.79169174 116.95900665 1.90052216 116.94874451 3.04295349 116.93817139 C4.25322708 116.93087006 5.46350067 116.92356873 6.71044922 116.91604614 C9.25928353 116.88795634 11.80811156 116.85929176 14.35693359 116.83010864 C18.38562525 116.78782953 22.41428078 116.75108115 26.44311523 116.72561646 C30.3241427 116.69786578 34.20463173 116.65196735 38.08544922 116.60354614 C39.87353249 116.59866684 39.87353249 116.59866684 41.69773865 116.59368896 C53.94023956 116.41534301 64.75441232 113.51871695 73.83154297 104.91213989 C77.3287197 101.11827127 79.65253635 97.95704413 81.49560547 93.12698364 C79.86402245 93.13031456 79.86402245 93.13031456 78.19947815 93.13371277 C67.97207036 93.15394343 57.74466661 93.16895541 47.51724339 93.17879581 C42.25863883 93.18402484 37.00005037 93.19112283 31.74145508 93.2024231 C26.6710742 93.2132513 21.60070885 93.21926033 16.53031731 93.22186089 C14.59133599 93.22371526 12.65235556 93.2273361 10.71338081 93.2327137 C8.00738787 93.23992324 5.30145991 93.24097462 2.59545898 93.24050903 C1.38058052 93.24590195 1.38058052 93.24590195 0.14115906 93.25140381 C-5.39034237 93.2410358 -5.39034237 93.2410358 -6.50439453 92.12698364 C-6.60522217 89.69037919 -6.64412056 87.28273663 -6.63720703 84.84573364 C-6.63816376 84.11705078 -6.63912048 83.38836792 -6.6401062 82.63760376 C-6.64078789 81.09418654 -6.63893441 79.55076647 -6.63476562 78.00735474 C-6.62941715 75.63700964 -6.63471095 73.26685405 -6.64111328 70.89651489 C-6.6404525 69.40042072 -6.63917133 67.90432667 -6.63720703 66.40823364 C-6.63923126 65.69469727 -6.64125549 64.98116089 -6.64334106 64.2460022 C-6.61934644 59.24193556 -6.61934644 59.24193556 -5.50439453 58.12698364 C-2.79601367 58.03183773 -0.1132094 58.00143432 2.59545898 58.01345825 C3.44416565 58.01331223 4.29287231 58.0131662 5.16729736 58.01301575 C7.98639438 58.01371516 10.80542618 58.02150887 13.62451172 58.02932739 C15.57364363 58.03119147 17.52277602 58.03261542 19.47190857 58.03361511 C24.61267379 58.03744109 29.75341094 58.04727205 34.89416504 58.05831909 C40.13565694 58.0685315 45.37715337 58.07311236 50.61865234 58.07815552 C60.91098241 58.08889425 71.20329161 58.10597163 81.49560547 58.12698364 C80.54741943 56.45647949 80.54741943 56.45647949 79.58007812 54.75222778 C79.22450836 54.12578873 78.8689386 53.49934967 78.50259399 52.85392761 C73.10038756 43.58936541 64.52234473 38.73775761 54.44772339 35.77822876 C49.03333831 34.58380091 43.60905456 34.6654939 38.08544922 34.65042114 C36.83679581 34.63484161 35.5881424 34.61926208 34.301651 34.60321045 C31.01582312 34.56397845 27.73020139 34.536486 24.44421387 34.51571655 C19.78539256 34.48390366 15.12677251 34.43267303 10.46815491 34.3793335 C7.99314745 34.35205731 5.5180662 34.33072774 3.04295349 34.3157959 C1.93412308 34.30553375 0.82529266 34.29527161 -0.31713867 34.28469849 C-1.29735489 34.27820282 -2.27757111 34.27170715 -3.28749084 34.26501465 C-5.50439453 34.12698364 -5.50439453 34.12698364 -6.50439453 33.12698364 C-6.60517573 30.76299896 -6.64412668 28.42887053 -6.63720703 26.06448364 C-6.63816376 25.35799683 -6.63912048 24.65151001 -6.6401062 23.9236145 C-6.64078786 22.42727571 -6.63893458 20.93093397 -6.63476562 19.43460083 C-6.6294171 17.13668207 -6.63471104 14.83895878 -6.64111328 12.54104614 C-6.6404525 11.09052488 -6.63917133 9.64000373 -6.63720703 8.18948364 C-6.63923126 7.49782104 -6.64125549 6.80615845 -6.64334106 6.09353638 C-6.61302821 -0.03566438 -5.97969791 0.00215755 0 0 Z " fill="#A04DB1" transform="translate(135.50439453125,79.87301635742188)"/>
</svg>
