<?xml version="1.0" encoding="UTF-8"?>
<svg version="1.1" xmlns="http://www.w3.org/2000/svg" width="729" height="951">
<path d="M0 0 C0.99 0.99 0.99 0.99 2 2 C0.76636719 3.12535156 0.76636719 3.12535156 -0.4921875 4.2734375 C-3.44334306 6.97351598 -6.3777739 9.69104502 -9.30322266 12.41894531 C-10.75397666 13.77075581 -12.21040166 15.11647591 -13.66796875 16.4609375 C-48.27905508 49.5475551 -64.41231446 100.77856997 -70 147 C-70.103125 147.80880615 -70.20625 148.6176123 -70.3125 149.45092773 C-71.40067762 159.3154522 -71.24296409 169.27596726 -71.25 179.1875 C-71.25100708 180.16976562 -71.25201416 181.15203125 -71.25305176 182.1640625 C-71.24275469 197.01122491 -70.65421483 211.35994017 -68 226 C-67.73040261 227.64191622 -67.46087091 229.28384324 -67.19140625 230.92578125 C-59.53256107 274.99603454 -40.38866993 317.54144249 -10.15625 350.62109375 C-8.20384564 352.77510509 -6.31722641 354.97027726 -4.4375 357.1875 C1.56053926 363.99791479 8.51095868 369.19083138 15.875 374.4375 C16.63731934 374.98245117 17.39963867 375.52740234 18.18505859 376.08886719 C18.90516113 376.59450195 19.62526367 377.10013672 20.3671875 377.62109375 C21.01800293 378.0792749 21.66881836 378.53745605 22.33935547 379.00952148 C23.96401358 380.17074909 23.96401358 380.17074909 26 380 C26.64939736 377.62592408 27.29460053 375.2508361 27.9375 372.875 C28.11990234 372.20984375 28.30230469 371.5446875 28.49023438 370.859375 C29.55082506 366.92554773 30.40362132 363.03026435 31 359 C27.7 359.66 24.4 360.32 21 361 C21 356.93936251 21.36983219 355.83626981 23.265625 352.4453125 C23.74386719 351.58292969 24.22210938 350.72054688 24.71484375 349.83203125 C25.22144531 348.93871094 25.72804688 348.04539062 26.25 347.125 C26.74113281 346.23941406 27.23226562 345.35382813 27.73828125 344.44140625 C29.82788268 340.70241276 31.92936656 337.02148548 34.359375 333.4921875 C36.18328564 331.21886883 36.18328564 331.21886883 36 329 C33.03 329.33 30.06 329.66 27 330 C26 326 26 326 27.1171875 323.9921875 C27.69726562 323.29351562 28.27734375 322.59484375 28.875 321.875 C29.52082031 321.09382813 30.16664063 320.31265625 30.83203125 319.5078125 C31.90517578 318.26644531 31.90517578 318.26644531 33 317 C34.11955078 315.69675781 34.11955078 315.69675781 35.26171875 314.3671875 C39.24476833 309.83638408 43.21610632 305.67991821 48 302 C45.34005104 300.22670069 43.27883659 299.31173429 40.3125 298.25 C31.93623208 294.92879756 25.81744195 290.31491404 22 282 C21.12924053 279.32845524 20.54331396 276.76596198 20 274 C23.90762976 274.41132945 27.16258541 275.41539507 30.75 276.9375 C43.92714528 282.29010702 57.83291115 281.66076008 71.8125 280.5 C77.96038723 280.00758972 84.08505215 279.81993351 90.25 279.75 C91.16112549 279.72873047 92.07225098 279.70746094 93.01098633 279.68554688 C101.95222647 279.64013929 109.84266776 281.43318603 117 287 C117.48210937 287.47824219 117.96421875 287.95648438 118.4609375 288.44921875 C123.09538054 292.93671604 127.68852681 294.35037525 133.84765625 296.0859375 C142.905058 298.7122473 148.60835002 303.24894134 153.4375 311.4375 C154.27425391 315.24937893 154.67285249 319.1365244 154 323 C152.48046875 324.7734375 152.48046875 324.7734375 151 326 C149.53515625 324.73046875 148.0703125 323.4609375 146.60546875 322.19140625 C140.71992164 317.82378613 129.50291714 319.53082381 122.55859375 320.4609375 C115.86712857 321.91374603 111.0233514 324.3518869 106 329 C105.46890625 329.47179687 104.9378125 329.94359375 104.390625 330.4296875 C100.44842032 334.88127818 99.41469683 341.77754081 99.65625 347.5546875 C100.99711265 357.09309679 105.0920431 364.55083695 111 372 C111.53109375 372.70640625 112.0621875 373.4128125 112.609375 374.140625 C115.39581907 377.76632173 115.39581907 377.76632173 119.37890625 379.84765625 C127.05098711 380.29357451 135.77751192 370.9160875 141.5 366.3125 C142.19456299 365.7541748 142.88912598 365.19584961 143.60473633 364.62060547 C146.87028624 361.94066602 149.51957875 359.44409843 152 356 C152.66 356 153.32 356 154 356 C154.26264648 355.40791748 154.52529297 354.81583496 154.79589844 354.20581055 C156.05637788 351.89672057 157.35206236 350.49636794 159.265625 348.70703125 C162.79981345 345.26878121 165.81596709 341.64372508 168.75 337.6875 C169.25950195 337.00236328 169.76900391 336.31722656 170.29394531 335.61132812 C191.43006249 306.70745942 205.209447 273.02729275 212.6875 238.125 C212.87803955 237.24191162 213.0685791 236.35882324 213.26489258 235.44897461 C216.9743905 217.18645733 218.55394018 199.17813914 218.4375 180.5625 C218.43445862 179.52261932 218.43141724 178.48273865 218.42828369 177.41134644 C218.29227915 145.79089573 214.09990778 114.78360349 203 85 C202.58492188 83.845 202.16984375 82.69 201.7421875 81.5 C189.82493951 49.90226819 169.94243935 24.36492177 145 2 C145.66 1.34 146.32 0.68 147 0 C168.71615239 8.3545756 168.71615239 8.3545756 178 14 C178.75394043 14.45004395 179.50788086 14.90008789 180.28466797 15.36376953 C191.36670961 21.9895626 202.03889927 28.76843765 212 37 C212.55655273 37.45648926 213.11310547 37.91297852 213.68652344 38.38330078 C219.57815166 43.22697833 225.34568214 48.12600328 230.6328125 53.63671875 C232.10026392 55.16545087 232.10026392 55.16545087 234.4375 56.8125 C234.953125 57.204375 235.46875 57.59625 236 58 C236 58.66 236 59.32 236 60 C236.66 60 237.32 60 238 60 C238 60.66 238 61.32 238 62 C238.66 62 239.32 62 240 62 C244.59171448 67.21462148 245.08055978 72.62320304 245.75 79.375 C245.86996338 80.55819824 245.98992676 81.74139648 246.11352539 82.96044922 C248.61946723 111.63184344 249.26762982 141.80545899 243 170 C242.78085937 171.03866211 242.56171875 172.07732422 242.3359375 173.14746094 C238.6163878 190.76722441 238.6163878 190.76722441 237 194 C241.0891138 191.27392413 242.21122201 188.06160551 244.25 183.6875 C244.84107544 182.42510498 244.84107544 182.42510498 245.4440918 181.13720703 C257.95521881 153.70828642 262.03367638 125.88532573 263 96 C263.99 96 264.98 96 266 96 C272.30339879 102.6385162 276.09154689 111.72733875 279.99267578 119.90869141 C280.94882633 121.89375821 281.93591533 123.85977017 282.93359375 125.82421875 C295.59783169 151.16547389 310.19679753 184.14133195 301.25878906 212.53076172 C300.5329971 214.69785312 299.77593929 216.85037893 299 219 C298.75362793 219.68819824 298.50725586 220.37639648 298.25341797 221.08544922 C289.41158179 245.21665009 275.1164962 268.07700741 259 288 C257.35866621 290.04546349 255.71909032 292.09232429 254.08007812 294.13964844 C253.00499611 295.47998552 251.9269804 296.81797605 250.84570312 298.15332031 C248.16753072 301.40592936 248.16753072 301.40592936 246 305 C256.41768126 298.35938699 265.17546977 290.60530289 274 282 C274.98669341 281.05308756 275.97364935 280.10644857 276.9609375 279.16015625 C281.83910333 274.40650817 286.16601417 269.62625873 290 264 C290.36593262 263.46745605 290.73186523 262.93491211 291.10888672 262.38623047 C296.30530039 254.80288818 301.20416871 247.16354795 305.625 239.09765625 C306.305625 238.05931641 306.305625 238.05931641 307 237 C307.66 237 308.32 237 309 237 C309.37401773 255.86583788 308.92595888 274.24409348 306.39697266 292.98583984 C306.03639894 295.72362776 305.73477517 298.46063454 305.44921875 301.20703125 C304.50705487 309.17557309 302.98777206 314.64664622 296.59375 320.0234375 C295.7378125 320.67570312 294.881875 321.32796875 294 322 C293.1028125 322.75539063 292.205625 323.51078125 291.28125 324.2890625 C288.55781429 326.57644249 285.79062929 328.79536188 283 331 C282.31808594 331.54914063 281.63617187 332.09828125 280.93359375 332.6640625 C268.86063625 342.25627531 256.27714337 351.16168645 243 359 C242.02675781 359.59941406 241.05351563 360.19882812 240.05078125 360.81640625 C239.14714844 361.37199219 238.24351562 361.92757813 237.3125 362.5 C236.52488281 362.9846875 235.73726563 363.469375 234.92578125 363.96875 C233 365 233 365 231 365 C231 365.66 231 366.32 231 367 C250.93545463 361.36088734 269.28717752 353.25375267 287.13037109 342.72900391 C290.04171774 341.02004899 292.64081051 339.55014021 296 339 C294.03834422 352.29566695 288.69767637 365.01869016 282.75 377 C282.25669189 377.99604248 282.25669189 377.99604248 281.75341797 379.01220703 C279.17416418 384.035103 277.11074336 386.81097812 271.81640625 388.83203125 C270.98165771 389.15260498 270.14690918 389.47317871 269.28686523 389.8034668 C268.38782471 390.13644775 267.48878418 390.46942871 266.5625 390.8125 C265.62672119 391.1628833 264.69094238 391.5132666 263.72680664 391.87426758 C250.72872657 396.66406827 237.47645098 400.44449465 224.0625 403.875 C223.22775146 404.09051514 222.39300293 404.30603027 221.53295898 404.52807617 C217.61171392 405.50162945 214.07565002 406.27994364 210 406 C210 406.66 210 407.32 210 408 C227.40248383 407.54500893 244.67435506 406.75997606 262 405 C262.33 405.66 262.66 406.32 263 407 C257.44430993 415.1537922 251.32372005 422.42042177 244.44775391 429.47509766 C243.11585643 430.87796977 241.85645884 432.3487443 240.60546875 433.82421875 C237.18631696 437.53461004 234.6071882 439.69325665 229.58203125 440.65234375 C224.98598841 440.76577028 220.56957262 440.45735845 216 440 C214.90574707 439.90041992 213.81149414 439.80083984 212.68408203 439.69824219 C201.2698846 438.64462396 189.91177801 437.44894935 178.63208008 435.38037109 C176.04696476 435.00678704 173.60772428 434.93217499 171 435 C183.33393211 440.86242452 195.75296653 445.34664074 208.81494141 449.30761719 C211.264832 450.08391771 213.64064273 450.98107422 216 452 C216 452.99 216 453.98 216 455 C213.69685963 456.75185677 211.46594481 458.25829761 209 459.75 C208.28320068 460.18739502 207.56640137 460.62479004 206.82788086 461.07543945 C201.86097953 464.03759169 196.81170218 466.75993345 191.5625 469.1875 C190.93794922 469.49075195 190.31339844 469.79400391 189.66992188 470.10644531 C183.72331933 472.71004211 178.6876793 472.26242424 172.68579102 470.20776367 C170.2499951 469.21165949 167.87693127 468.12920761 165.5 467 C164.21754395 466.40747437 164.21754395 466.40747437 162.90917969 465.80297852 C154.4443941 461.84341636 146.19351522 457.48945199 138 453 C138 457.56792458 143.98778123 461.88083856 147 465 C151.46710941 469.30466907 155.97806185 473.39874137 161.125 476.875 C162.07375 477.57625 163.0225 478.2775 164 479 C164 479.99 164 480.98 164 482 C162.25093469 482.64836042 160.50070781 483.29358784 158.75 483.9375 C157.77546875 484.29714844 156.8009375 484.65679687 155.796875 485.02734375 C147.89349215 487.77586656 137.39486424 489.04021024 129.38671875 486.01171875 C123.94949106 482.14355076 119.94496085 476.30891008 116 471 C112.01767222 474.66903276 109.35683647 478.33510232 106.75 483.0625 C106.399375 483.67416016 106.04875 484.28582031 105.6875 484.91601562 C101.94402275 491.57508573 100.94266653 497.62602986 102.42578125 505.1640625 C109.57755851 529.29582627 132.58114092 548.93990026 153.91796875 560.59375 C162.56150098 564.69495702 171.58556448 565.29914758 181 566 C181 566.99 181 567.98 181 569 C173.8098596 575.51280833 163.85313765 579.91163738 154.1171875 579.51171875 C132.02976186 575.8858381 110.5539264 558.39988032 96.4453125 541.69921875 C94.95747294 539.90381734 94.95747294 539.90381734 93 538 C94.49211471 542.29985745 96.73671392 545.83106117 99.375 549.5 C99.81126709 550.10948486 100.24753418 550.71896973 100.69702148 551.34692383 C104.78367331 556.92762041 109.3830905 561.9151196 114.1328125 566.9296875 C117.47619144 570.47142116 120.54899885 574.20348317 123.59375 578.00390625 C125.40655847 580.26108822 127.23832547 582.49318732 129.09375 584.71484375 C136.36095919 593.45798725 142.87260934 602.42883151 149 612 C149.50015625 612.71027344 150.0003125 613.42054688 150.515625 614.15234375 C160.63787818 628.79117192 163.28622342 647.54433566 160.3515625 664.81640625 C157.17334478 675.88583978 151.30704684 686.14054028 144 695 C143.34 694.67 142.68 694.34 142 694 C141.63696289 691.64599609 141.63696289 691.64599609 141.47265625 688.5234375 C141.37078003 686.81631592 141.37078003 686.81631592 141.2668457 685.07470703 C141.16569458 683.24335205 141.16569458 683.24335205 141.0625 681.375 C138.07297466 636.30080496 115.04247876 596.67925386 90 560 C90.67053423 564.43008807 92.27939798 568.30420736 94.0625 572.37890625 C94.69751188 573.85824611 95.33175754 575.33791505 95.96533203 576.81787109 C96.29776917 577.59153015 96.6302063 578.36518921 96.97271729 579.16229248 C106.93377138 602.43592164 115.37070661 626.03703354 120 651 C120.16226074 651.8461084 120.32452148 652.6922168 120.49169922 653.56396484 C126.44222101 685.9203109 125.28345862 722.00328956 114 753 C113.53072889 754.34487036 113.06199139 755.68992703 112.59375 757.03515625 C109.38804843 766.05817484 105.4716596 774.53295224 101 783 C100.01 783 99.02 783 98 783 C98.00444122 782.10053146 98.00888245 781.20106293 98.01345825 780.27433777 C98.05425362 771.61744385 98.08433755 762.96058411 98.10362434 754.30361462 C98.11387438 749.85755868 98.1276687 745.41158484 98.15087891 740.96557617 C98.30586867 710.39508274 97.78536948 679.90637235 93.6875 649.5625 C93.4692978 647.88324338 93.25128478 646.20396217 93.03344727 644.5246582 C90.56021029 625.76621089 87.30217388 607.14463784 83.16772461 588.6784668 C82.42622472 585.32954573 82 582.45430634 82 579 C81.34 579 80.68 579 80 579 C80.13575439 580.3104126 80.27150879 581.6208252 80.41137695 582.97094727 C82.71677912 605.29642744 85.01026551 627.62217624 86.75 650 C86.80862213 650.73316437 86.86724426 651.46632874 86.92764282 652.22171021 C89.04729598 678.95215709 89.18814407 705.69373372 89.18530273 732.4909668 C89.18522173 736.43925583 89.1921408 740.38742821 89.20581055 744.33569336 C89.3034382 772.98584518 88.77900702 801.46287485 86 830 C87.52367187 830.56654297 87.52367187 830.56654297 89.078125 831.14453125 C103.23293465 836.68839768 114.27960753 844.88342141 121 859 C127.0617468 874.76797941 127.54486605 890.9516986 121.58984375 906.73828125 C115.02013319 920.94935728 104.82083681 931.00356382 90.34765625 937.12109375 C88.23651068 937.85525253 86.17415079 938.48618702 84 939 C82.85724609 939.27263672 82.85724609 939.27263672 81.69140625 939.55078125 C65.36541359 942.27572923 51.2422937 938.02902509 37.8125 928.8125 C26.83611003 917.83611003 19.83322123 904.63222306 19.67041016 889.03271484 C19.67886963 887.6243335 19.67886963 887.6243335 19.6875 886.1875 C19.69313965 885.20990723 19.6987793 884.23231445 19.70458984 883.22509766 C19.81948493 876.41216042 20.31612312 870.33354279 23 864 C23.4021875 863.02160156 23.804375 862.04320312 24.21875 861.03515625 C31.85227704 844.22019253 44.49047176 836.68325914 61 830 C60.86368164 828.51185791 60.86368164 828.51185791 60.72460938 826.99365234 C55.29786387 765.39631286 55.28177598 701.68164349 60.72735596 640.09625244 C61.03117273 636.64599031 61.32430079 633.19490045 61.61669922 629.74365234 C62.66390257 617.44413479 63.75143375 605.14854814 64.9140625 592.859375 C65.00876328 591.84634811 65.10346405 590.83332123 65.20103455 589.78959656 C65.64607302 585.15662235 66.14736809 580.58012668 67 576 C66.34 576 65.68 576 65 576 C64.93087402 576.89900024 64.93087402 576.89900024 64.86035156 577.81616211 C64.30349684 584.21194791 63.16069611 590.30719065 61.75 596.5625 C51.32192711 644.97308781 48.83491852 694.51185558 48.39910889 743.89154053 C48.35813326 748.32489577 48.307484 752.75814142 48.2578125 757.19140625 C48.16276836 765.79419411 48.07785441 774.39703941 48 783 C45 782 45 782 43.94433594 780.47558594 C43.62754883 779.81848633 43.31076172 779.16138672 42.984375 778.484375 C42.6236792 777.73873291 42.2629834 776.99309082 41.89135742 776.22485352 C41.51470947 775.40815186 41.13806152 774.5914502 40.75 773.75 C40.35594971 772.90171631 39.96189941 772.05343262 39.5559082 771.17944336 C32.41581023 755.41467259 27.65812104 739.09277549 25 722 C24.896875 721.35434082 24.79375 720.70868164 24.6875 720.04345703 C23.58299564 711.88393109 23.75697018 703.59386931 23.75 695.375 C23.74899292 694.55219543 23.74798584 693.72939087 23.74694824 692.88165283 C23.75810227 679.37970582 24.55580149 666.30346132 27 653 C27.13390137 652.22237305 27.26780273 651.44474609 27.40576172 650.64355469 C32.96661276 618.78830375 45.49381781 588.64812268 58 559 C55.23239602 561.47518182 53.59763378 564.19646941 51.77734375 567.41796875 C50.85320679 569.04037476 50.85320679 569.04037476 49.91040039 570.69555664 C49.58830597 571.2656546 49.26621155 571.83575256 48.93435669 572.42312622 C47.25546119 575.39466589 45.56315298 578.35848839 43.8671875 581.3203125 C43.53278152 581.90440384 43.19837555 582.48849518 42.85383606 583.09028625 C40.21913533 587.66915373 37.4337539 592.12981828 34.5625 596.5625 C29.95100099 603.73520837 26.37272783 611.27150143 22.90307617 619.04833984 C22.00163358 620.99646963 21.02317143 622.88773825 20.02734375 624.7890625 C9.09183803 646.50143507 6.77436003 670.17834062 5 694 C4.01 694 3.02 694 2 694 C-10.46405732 680.13522005 -14.91173212 662.571469 -14.17041016 644.33056641 C-12.47884464 621.1963481 4.41007789 601.8674214 18.52978516 584.79052734 C20.46971738 582.42794632 22.36021215 580.02778415 24.25 577.625 C26.84540344 574.36174171 29.55478823 571.25828807 32.375 568.1875 C40.04907042 559.75795114 46.88549584 550.61915898 53 541 C52.67 540.67 52.34 540.34 52 540 C51.3709375 540.71285156 50.741875 541.42570313 50.09375 542.16015625 C45.02148221 547.83590168 39.92724279 553.20422737 34 558 C33.06800781 558.78117188 32.13601563 559.56234375 31.17578125 560.3671875 C19.30656484 570.0885344 3.53412508 579.96456811 -12.35546875 579.4140625 C-20.93746431 578.07035271 -27.87528313 573.98551876 -34 568 C-33.67 567.34 -33.34 566.68 -33 566 C-30.515625 565.7265625 -30.515625 565.7265625 -27.25 565.625 C-11.36900443 564.53631369 3.01783541 557.53495811 14 546 C15.5748632 544.59461712 17.15827544 543.19875685 18.75 541.8125 C30.9833939 530.79518532 44.35662502 515.97604218 45.6875 498.75 C45.29593306 488.52575211 38.4214715 478.57404331 32 471 C31.319375 471.680625 30.63875 472.36125 29.9375 473.0625 C29.47988281 473.51625 29.02226562 473.97 28.55078125 474.4375 C27.47006101 475.52638689 26.40606773 476.63202294 25.35546875 477.75 C19.78203978 483.58763215 15.75463343 487.09289624 7.45727539 487.46972656 C-0.7080851 487.58843974 -8.52672773 486.52446121 -16 483 C-16.99 481.515 -16.99 481.515 -18 480 C-14.83936994 477.26078728 -11.68555812 474.5412301 -8.40234375 471.94921875 C-2.01566411 466.89197453 4.16408382 461.61505571 9 455 C9 454.01 9 453.02 9 452 C8.42604492 452.36061523 7.85208984 452.72123047 7.26074219 453.09277344 C0.4605759 457.27852779 -6.53938444 460.82946962 -13.75 464.25 C-14.84699219 464.77851563 -15.94398438 465.30703125 -17.07421875 465.8515625 C-31.60788912 472.79249114 -31.60788912 472.79249114 -39 471 C-42.52685109 469.63359129 -45.91488319 468.03392743 -49.3125 466.375 C-50.24151123 465.92785645 -51.17052246 465.48071289 -52.12768555 465.02001953 C-58.53474092 461.87532123 -64.44729591 458.51999093 -70 454 C-69.67 453.01 -69.34 452.02 -69 451 C-66.76953125 450.03613281 -66.76953125 450.03613281 -63.8125 449.203125 C-62.72855957 448.88738525 -61.64461914 448.57164551 -60.52783203 448.24633789 C-58.78155518 447.75315063 -58.78155518 447.75315063 -57 447.25 C-47.4614394 444.45196122 -38.29932709 441.32830163 -29.1953125 437.34765625 C-26.75766733 436.31955407 -24.58001764 435.51211405 -22 435 C-22 434.34 -22 433.68 -22 433 C-23.25876953 433.27263672 -23.25876953 433.27263672 -24.54296875 433.55078125 C-39.84297587 436.74853193 -55.37492352 439.23877833 -71 440 C-72.17046875 440.11085938 -73.3409375 440.22171875 -74.546875 440.3359375 C-81.01064966 440.73818957 -85.16903467 440.57388711 -90.375 436.5 C-91.9489396 435.03389965 -93.4922837 433.53412114 -95 432 C-96.02673828 431.04673828 -96.02673828 431.04673828 -97.07421875 430.07421875 C-104.4763811 423.05016292 -111.34157215 415.11431536 -116 406 C-115.67 405.67 -115.34 405.34 -115 405 C-113.03879069 405.0659734 -111.07992421 405.2048066 -109.125 405.375 C-108.05507812 405.46523438 -106.98515625 405.55546875 -105.8828125 405.6484375 C-103.79335741 405.83762357 -101.70412977 406.03015991 -99.61694336 406.24291992 C-91.85613713 407.00889738 -84.10528886 407.31607174 -76.3125 407.5625 C-75.02666016 407.60568359 -73.74082031 407.64886719 -72.41601562 407.69335938 C-69.27742506 407.79836798 -66.13876996 407.90052405 -63 408 C-63 407.34 -63 406.68 -63 406 C-63.63599121 405.97059326 -64.27198242 405.94118652 -64.92724609 405.91088867 C-72.83895664 405.38632792 -80.04351817 403.56684705 -87.625 401.3125 C-88.85468506 400.95309326 -90.08437012 400.59368652 -91.35131836 400.22338867 C-100.69256528 397.46159135 -109.91263372 394.50758187 -119 391 C-120.08667969 390.60425781 -121.17335937 390.20851563 -122.29296875 389.80078125 C-123.26878906 389.41277344 -124.24460938 389.02476562 -125.25 388.625 C-126.05953125 388.30789063 -126.8690625 387.99078125 -127.703125 387.6640625 C-133.40968415 383.52971863 -136.17734807 375.92265278 -138.9375 369.625 C-139.44410156 368.47837891 -139.44410156 368.47837891 -139.9609375 367.30859375 C-149 346.39936616 -149 346.39936616 -149 340 C-144.38869776 340.54505073 -141.12963298 342.59843619 -137.3125 345.0625 C-129.58872769 349.87992436 -121.52442028 353.54789629 -113.14916992 357.07763672 C-110.94440291 358.02386071 -108.76946951 359.0247494 -106.58984375 360.02734375 C-101.81788073 362.15665149 -96.93185869 363.73115702 -91.9375 365.25 C-91.07189453 365.518125 -90.20628906 365.78625 -89.31445312 366.0625 C-87.21109793 366.71326183 -85.10634852 367.35900722 -83 368 C-83 367.34 -83 366.68 -83 366 C-83.88300781 365.73574219 -84.76601562 365.47148437 -85.67578125 365.19921875 C-88.89413976 364.0381893 -91.34359597 362.69266046 -94.1875 360.8125 C-95.14398438 360.18601562 -96.10046875 359.55953125 -97.0859375 358.9140625 C-98.04757813 358.28242188 -99.00921875 357.65078125 -100 357 C-101.76995545 355.89442665 -103.54078386 354.79024958 -105.3125 353.6875 C-117.20863975 346.08812461 -128.24222164 337.56719236 -139.10009766 328.56640625 C-140.91351177 327.07130667 -142.7407822 325.59543557 -144.57421875 324.125 C-145.65380195 323.25019262 -146.73323823 322.3752039 -147.8125 321.5 C-149.21435547 320.37078125 -149.21435547 320.37078125 -150.64453125 319.21875 C-155.33124508 314.80406765 -156.5588359 310.40637758 -157.3515625 304.1640625 C-157.45592621 303.40765472 -157.56028992 302.65124695 -157.66781616 301.87191772 C-157.88643869 300.27063988 -158.09959284 298.66860709 -158.30761719 297.06591797 C-158.61969795 294.66577687 -158.94886795 292.26849817 -159.28125 289.87109375 C-161.15421196 276.11072226 -162.18241747 262.46370178 -162.0625 248.5625 C-162.05798828 247.53318359 -162.05347656 246.50386719 -162.04882812 245.44335938 C-162.03728772 242.96217174 -162.02101824 240.48112218 -162 238 C-161.01 238 -160.02 238 -159 238 C-158.43345703 239.12921875 -158.43345703 239.12921875 -157.85546875 240.28125 C-151.16876498 253.1848657 -143.28331806 265.07824523 -133.25 275.62890625 C-131.31243924 277.67074545 -129.53056003 279.76076536 -127.75 281.9375 C-119.59499013 291.30422124 -109.15437104 298.95410989 -99 306 C-99 302.40847849 -102.43365673 299.94726762 -104.75 297.375 C-114.53210165 286.29634534 -123.29888184 274.62025344 -131 262 C-131.62132812 261.04480469 -132.24265625 260.08960938 -132.8828125 259.10546875 C-146.43138569 237.98563406 -161.30638171 209.20316982 -155.75 183.5390625 C-155.18435223 181.22997072 -154.60029374 178.92532817 -154 176.625 C-153.52796143 174.78615234 -153.52796143 174.78615234 -153.04638672 172.91015625 C-150.1391289 161.92813656 -146.44060469 151.44640851 -142 141 C-141.65743164 140.18160645 -141.31486328 139.36321289 -140.96191406 138.52001953 C-136.68839541 128.38584598 -131.8724656 118.57347973 -126.6875 108.875 C-126.18379883 107.91988525 -125.68009766 106.96477051 -125.16113281 105.98071289 C-124.67870117 105.09762451 -124.19626953 104.21453613 -123.69921875 103.3046875 C-123.27471436 102.52077637 -122.85020996 101.73686523 -122.4128418 100.92919922 C-120.81822835 98.75179548 -119.48058698 97.99011831 -117 97 C-115.2599073 98.7400927 -115.70516546 101.18032528 -115.5703125 103.5546875 C-115.49901123 104.71758301 -115.42770996 105.88047852 -115.35424805 107.07861328 C-115.24077026 108.95782471 -115.24077026 108.95782471 -115.125 110.875 C-113.23030641 139.18268839 -108.11707952 168.875709 -92 193 C-91.34 193.33 -90.68 193.66 -90 194 C-90.23074219 193.36320313 -90.46148437 192.72640625 -90.69921875 192.0703125 C-102.81795727 155.95359771 -101.98304427 118.99171876 -98.35571289 81.67138672 C-98.14302282 79.47616823 -97.93873095 77.28007364 -97.75170898 75.08251953 C-96.94868754 66.33020832 -92.67496155 62.33464822 -86.171875 56.8828125 C-83.83160081 54.85401365 -81.67104553 52.70847735 -79.5 50.5 C-57.78425801 28.63728176 -29.21568119 9.96585175 0 0 Z M91 294 C91.53918663 296.55849344 91.80975504 297.79512082 93.625 299.75 C96.83134123 301.43754802 99.43348514 301.20576047 103 301 C103.66 299.68 104.32 298.36 105 297 C100.43672206 293.46713966 96.50366792 293.67625483 91 294 Z M51 845 C39.79270749 858.20311172 38.01092068 875.94039953 38.79589844 892.58984375 C39.96326323 906.37480218 44.81715521 918.49101994 55 928 C61.51240645 932.93857489 69.51631814 933.41040294 77.453125 932.81640625 C84.58624305 931.6067691 90.43704351 928.17462855 94.98046875 922.546875 C105.98879105 906.1165432 108.09878096 886.92169877 104.34228516 867.79956055 C102.06412746 857.11796126 98.22439723 847.56259558 89.125 841 C88.09375 840.34 87.0625 839.68 86 839 C85.34 839.33 84.68 839.66 84 840 C83.4375381 842.99473475 83.00111243 845.92879604 82.6328125 848.94921875 C82.51322174 849.86622559 82.39363098 850.78323242 82.27041626 851.72802734 C82.01430469 853.6946257 81.76198891 855.66172133 81.51306152 857.62924194 C80.87181378 862.68282486 80.19790786 867.73200994 79.5234375 872.78125 C79.39239624 873.76518234 79.26135498 874.74911469 79.12634277 875.76286316 C78.14141795 883.09791852 77.06080568 890.40247002 75.75 897.6875 C75.59934082 898.55656982 75.44868164 899.42563965 75.29345703 900.32104492 C74.9357524 902.22927238 74.4806349 904.11896977 74 906 C73.01 906.495 73.01 906.495 72 907 C71.95536621 906.38141113 71.91073242 905.76282227 71.86474609 905.12548828 C71.26186364 897.65546167 70.16788213 890.3113154 68.95834351 882.91772461 C66.5763569 868.32094208 64.61296068 853.70345224 63 839 C57.44948144 839 54.96552734 841.29475824 51 845 Z " fill="#F8F8F8" transform="translate(275,11)"/>
<path d="M0 0 C6.68033696 0.01810389 12.14235263 0.16006339 17.53515625 4.55078125 C25.33953765 12.59468331 28.76461289 25.10449529 32.6875 35.375 C37.37312942 47.43137752 42.21504837 59.42197988 47.16149902 71.37371826 C47.96870563 73.32856138 48.77170674 75.2851465 49.57043457 77.24346924 C50.70091227 80.01223941 51.84649079 82.77428198 52.99609375 85.53515625 C53.33428635 86.37143051 53.67247894 87.20770477 54.0209198 88.06932068 C56.30744319 93.60614026 56.30744319 93.60614026 60.9375 97.25 C67.66132106 99.04987562 75.67147662 98.9998128 81.83203125 95.69921875 C85.69673906 92.65120391 88.16123305 89.27769525 90.9375 85.25 C91.48494873 84.47124512 92.03239746 83.69249023 92.59643555 82.89013672 C93.76675361 81.22354559 94.93289388 79.55401426 96.09521484 77.88183594 C98.00369638 75.15543374 99.94526574 72.45517966 101.89453125 69.7578125 C103.18014668 67.96387065 104.46531398 66.16960755 105.75 64.375 C106.67522461 63.10076172 106.67522461 63.10076172 107.61914062 61.80078125 C108.46702148 60.60388672 108.46702148 60.60388672 109.33203125 59.3828125 C109.83581299 58.68043457 110.33959473 57.97805664 110.85864258 57.25439453 C112.25346847 55.0423494 112.25346847 55.0423494 111.9375 51.25 C110.59588226 48.8012508 109.21572761 46.51489251 107.6875 44.1875 C106.76903563 42.76203797 105.85108978 41.33624174 104.93359375 39.91015625 C104.44616699 39.15750488 103.95874023 38.40485352 103.45654297 37.62939453 C101.88495063 35.16768785 100.36203225 32.68086031 98.84765625 30.18359375 C98.33170898 29.34127197 97.81576172 28.4989502 97.28417969 27.63110352 C96.28561906 25.99994107 95.29494321 24.36391675 94.31347656 22.72241211 C89.291744 14.60832221 84.13666251 10.18358258 74.9765625 7.40234375 C72.9375 6.25 72.9375 6.25 72.0859375 3.69140625 C72.03695312 2.88574219 71.98796875 2.08007812 71.9375 1.25 C73.81440058 -0.62690058 76.86713027 0.03239444 79.375 0 C90.20373403 0.1426277 96.69308576 2.03999025 104.5625 9.67578125 C112.1681518 17.91940713 117.57381095 27.47838565 122.9375 37.25 C123.5975 37.25 124.2575 37.25 124.9375 37.25 C126.2921888 35.63796286 126.2921888 35.63796286 127.6171875 33.5234375 C128.13410156 32.73839844 128.65101563 31.95335937 129.18359375 31.14453125 C129.98990234 29.89736328 129.98990234 29.89736328 130.8125 28.625 C131.34230469 27.81675781 131.87210938 27.00851562 132.41796875 26.17578125 C133.45525664 24.5928233 134.48761445 23.00662209 135.51464844 21.41699219 C136.74196396 19.54779992 138.02100551 17.73309228 139.3203125 15.9140625 C141.28344181 13.19953057 141.28344181 13.19953057 140.9375 9.25 C139.76380859 9.05083984 139.76380859 9.05083984 138.56640625 8.84765625 C137.55449219 8.67105469 136.54257813 8.49445312 135.5 8.3125 C133.98599609 8.05146484 133.98599609 8.05146484 132.44140625 7.78515625 C129.9375 7.25 129.9375 7.25 128.9375 6.25 C128.8125 3.75 128.8125 3.75 128.9375 1.25 C130.78026509 -0.59276509 133.36713759 0.12125589 135.81884766 0.11105347 C136.64175293 0.1130777 137.4646582 0.11510193 138.3125 0.1171875 C139.15216309 0.11623077 139.99182617 0.11527405 140.85693359 0.11428833 C142.63574295 0.11360652 144.41455477 0.11546083 146.19335938 0.11962891 C148.92583776 0.12497717 151.65815176 0.11968395 154.390625 0.11328125 C156.1145837 0.11394203 157.83854229 0.11522319 159.5625 0.1171875 C160.38540527 0.11516327 161.20831055 0.11313904 162.05615234 0.11105347 C167.82254946 0.13504946 167.82254946 0.13504946 168.9375 1.25 C168.97813832 2.91617115 168.980221 4.58388095 168.9375 6.25 C165.75635863 7.33624339 162.65605103 8.31419011 159.375 9.0625 C153.2272011 11.18628507 149.91696995 16.37755155 146.3125 21.5625 C145.68649902 22.45859985 145.68649902 22.45859985 145.04785156 23.37280273 C144.153199 24.65444377 143.26001201 25.93710888 142.36816406 27.22070312 C140.86564994 29.35191428 139.3231136 31.44975383 137.7734375 33.546875 C136.74435123 34.96843126 135.71569582 36.39029955 134.6875 37.8125 C133.93412354 38.81180542 133.93412354 38.81180542 133.16552734 39.83129883 C131.59883305 41.94428058 131.59883305 41.94428058 129.9375 45.25 C130.94928788 48.75344189 132.64440377 51.52140917 134.73828125 54.48046875 C135.29717041 55.27493408 135.85605957 56.06939941 136.43188477 56.88793945 C137.03186279 57.72929443 137.63184082 58.57064941 138.25 59.4375 C138.86866943 60.31301514 139.48733887 61.18853027 140.12475586 62.09057617 C145.87190536 70.20578779 151.68738775 78.27239405 157.5390625 86.3125 C158.94099237 88.25483859 160.31585207 90.21471422 161.69140625 92.17578125 C164.1982787 95.67372291 164.1982787 95.67372291 167.9375 97.25 C170.26756911 97.60543427 172.60077016 97.9413753 174.9375 98.25 C175.9375 99.25 175.9375 99.25 176.0625 101.75 C175.9375 104.25 175.9375 104.25 174.9375 105.25 C173.59205673 105.34785341 172.24157437 105.37797985 170.89257812 105.37939453 C170.03498901 105.38254669 169.1773999 105.38569885 168.29382324 105.38894653 C167.36154907 105.3869223 166.4292749 105.38489807 165.46875 105.3828125 C164.04278503 105.38424759 164.04278503 105.38424759 162.5880127 105.38571167 C160.57381118 105.38639357 158.55960748 105.38453862 156.54541016 105.38037109 C153.45079645 105.37502298 150.3563279 105.38031577 147.26171875 105.38671875 C145.30989551 105.38605797 143.35807236 105.38477681 141.40625 105.3828125 C140.47397583 105.38483673 139.54170166 105.38686096 138.58117676 105.38894653 C137.72358765 105.38579437 136.86599854 105.38264221 135.98242188 105.37939453 C135.22376831 105.37859894 134.46511475 105.37780334 133.68347168 105.37698364 C131.9375 105.25 131.9375 105.25 130.9375 104.25 C130.8125 101.75 130.8125 101.75 130.9375 99.25 C132.87020582 97.31729418 136.32391388 97.62336945 138.9375 97.25 C140.23366298 96.16182236 140.23366298 96.16182236 140.2421875 93.53125 C139.86337021 89.45167923 138.62916037 87.91169929 136.0625 84.75 C135.2478125 83.72132813 134.433125 82.69265625 133.59375 81.6328125 C133.160625 81.08915039 132.7275 80.54548828 132.28125 79.98535156 C129.47608721 76.36269583 126.90068138 72.56673589 124.30126953 68.79492188 C122.32624568 65.98149759 120.83517035 64.18178023 117.9375 62.25 C117.61587891 62.70737549 117.29425781 63.16475098 116.96289062 63.63598633 C116.00088375 65.00334668 115.03835348 66.37033887 114.07543945 67.73706055 C112.97902852 69.29367318 111.88382271 70.85113533 110.78979492 72.40942383 C108.36953469 75.84768748 105.9462349 79.27485878 103.39453125 82.6171875 C102.33298828 84.01324219 102.33298828 84.01324219 101.25 85.4375 C100.62738281 86.23542969 100.00476563 87.03335938 99.36328125 87.85546875 C97.69396604 90.65900362 97.28714534 93.02860091 96.9375 96.25 C99.83112649 97.69681324 102.7458009 97.68242376 105.94140625 97.96875 C107.9375 98.25 107.9375 98.25 108.9375 99.25 C109.0625 101.75 109.0625 101.75 108.9375 104.25 C107.18310837 106.00439163 104.88252544 105.36982963 102.54579163 105.37442017 C101.7732756 105.37082489 101.00075958 105.36722961 100.20483398 105.36352539 C98.99029541 105.36374443 98.99029541 105.36374443 97.7512207 105.3639679 C95.06198492 105.36326854 92.37281751 105.3554751 89.68359375 105.34765625 C87.82414284 105.34579215 85.96469144 105.34436821 84.10523987 105.34336853 C79.20120904 105.33954271 74.29720764 105.32971188 69.39318848 105.31866455 C64.39298908 105.30845181 59.39278494 105.30387121 54.39257812 105.29882812 C44.57420579 105.28808967 34.75585534 105.27101248 24.9375 105.25 C24.3125 102.875 24.3125 102.875 23.9375 100.25 C26.35880331 97.82869669 27.73861377 97.72159496 31.0625 97.125 C31.97257812 96.95742188 32.88265625 96.78984375 33.8203125 96.6171875 C34.51898438 96.49601563 35.21765625 96.37484375 35.9375 96.25 C35.7584611 88.89312867 34.39612455 78.70862455 28.9375 73.25 C25.98044679 73.16131701 23.04684944 73.13479704 20.08984375 73.15234375 C19.2034169 73.1537587 18.31699005 73.15517365 17.40370178 73.15663147 C14.56076746 73.16224785 11.71791069 73.17480309 8.875 73.1875 C6.95247509 73.19251289 5.02994896 73.19707616 3.10742188 73.20117188 C-1.61591549 73.21222259 -6.33919458 73.22949817 -11.0625 73.25 C-12.07725351 75.76574308 -13.07429332 78.28634103 -14.0625 80.8125 C-14.34867188 81.51697266 -14.63484375 82.22144531 -14.9296875 82.94726562 C-16.73644061 87.61471116 -17.37804325 91.24732473 -17.0625 96.25 C-13.79735494 97.88257253 -10.20091388 97.64801914 -6.59375 97.87109375 C-4.0625 98.25 -4.0625 98.25 -2.0625 100.25 C-2.59821429 103.78571429 -2.59821429 103.78571429 -4.0625 105.25 C-6.78974279 105.35099488 -9.49112523 105.38970529 -12.21875 105.3828125 C-13.44495056 105.38424759 -13.44495056 105.38424759 -14.69592285 105.38571167 C-16.42765378 105.38639345 -18.15938724 105.38453929 -19.89111328 105.38037109 C-22.55116482 105.37502279 -25.2110475 105.38031612 -27.87109375 105.38671875 C-29.54947954 105.38605797 -31.22786523 105.3847768 -32.90625 105.3828125 C-33.70728149 105.38483673 -34.50831299 105.38686096 -35.33361816 105.38894653 C-40.94754921 105.36495079 -40.94754921 105.36495079 -42.0625 104.25 C-42.1875 101.75 -42.1875 101.75 -42.0625 99.25 C-40.18920891 97.37670891 -36.93590495 97.52826984 -34.38671875 97.140625 C-30.08125822 95.49080147 -28.31862634 91.77289403 -26.35839844 87.77099609 C-25.78814219 86.44191511 -25.22638336 85.10916536 -24.671875 83.7734375 C-24.36619598 83.05501175 -24.06051697 82.336586 -23.74557495 81.59638977 C-22.76030141 79.27571876 -21.78626773 76.95051934 -20.8125 74.625 C-20.13398168 73.02030112 -19.45477987 71.41589107 -18.77490234 69.81176758 C-17.14252842 65.95586076 -15.51866154 62.09644536 -13.89758301 58.23577881 C-12.81042893 55.65058965 -11.71465298 53.06910767 -10.6171875 50.48828125 C-9.07375711 46.85588798 -7.55130007 43.21526105 -6.03662109 39.57080078 C-4.89080897 36.84095366 -3.71986669 34.12230165 -2.55078125 31.40234375 C-1.70004286 29.39343151 -0.8497752 27.38431986 0 25.375 C0.40718262 24.44002686 0.81436523 23.50505371 1.23388672 22.54174805 C1.60143066 21.66429932 1.96897461 20.78685059 2.34765625 19.8828125 C2.67902588 19.10824707 3.01039551 18.33368164 3.35180664 17.53564453 C4.06835656 14.73933758 3.82260743 12.98270713 2.9375 10.25 C0.67148135 8.95957237 0.67148135 8.95957237 -2.0625 8.25 C-4.8125 7.4375 -4.8125 7.4375 -7.0625 6.25 C-7.9375 3.6875 -7.9375 3.6875 -8.0625 1.25 C-6.10947678 -0.70302322 -2.58272418 0.03053467 0 0 Z M8.9375 24.25 C5.25127281 31.29848667 2.24162637 38.57136302 -0.75 45.9375 C-1.24822266 47.14728516 -1.74644531 48.35707031 -2.25976562 49.60351562 C-2.97229492 51.35245117 -2.97229492 51.35245117 -3.69921875 53.13671875 C-4.34443481 54.71779419 -4.34443481 54.71779419 -5.00268555 56.33081055 C-5.96877098 58.99182956 -6.68976305 61.44552343 -7.0625 64.25 C-5.94902404 65.58996932 -5.94902404 65.58996932 -3.10327148 65.36352539 C-1.16303101 65.35567017 -1.16303101 65.35567017 0.81640625 65.34765625 C1.5030687 65.3462413 2.18973114 65.34482635 2.89720154 65.34336853 C5.09817801 65.33775479 7.29905409 65.32520007 9.5 65.3125 C10.98893083 65.30748676 12.47786324 65.30292355 13.96679688 65.29882812 C17.62373075 65.28778093 21.28060558 65.27050713 24.9375 65.25 C26.04755381 61.91983858 25.91342986 61.50417262 24.67407227 58.42114258 C24.37368546 57.6605806 24.07329865 56.90001862 23.7638092 56.1164093 C23.43054123 55.30068954 23.09727325 54.48496979 22.75390625 53.64453125 C22.41955063 52.80532639 22.08519501 51.96612152 21.7407074 51.10148621 C20.66927555 48.41820029 19.58482886 45.74039393 18.5 43.0625 C17.7719241 41.24578807 17.04469965 39.42873467 16.31835938 37.61132812 C14.53460046 33.15352753 12.73915057 28.70059798 10.9375 24.25 C10.2775 24.25 9.6175 24.25 8.9375 24.25 Z " fill="#EEEFEE" transform="translate(54.0625,842.75)"/>
<path d="M0 0 C0.33 0 0.66 0 1 0 C1.11547323 8.07029553 0.90041311 15.97667603 0 24 C1.01578125 24.37769531 2.0315625 24.75539063 3.078125 25.14453125 C17.23293465 30.68839768 28.27960753 38.88342141 35 53 C41.0617468 68.76797941 41.54486605 84.9516986 35.58984375 100.73828125 C29.02013319 114.94935728 18.82083681 125.00356382 4.34765625 131.12109375 C2.23651068 131.85525253 0.17415079 132.48618702 -2 133 C-2.76183594 133.18175781 -3.52367187 133.36351562 -4.30859375 133.55078125 C-20.63458641 136.27572923 -34.7577063 132.02902509 -48.1875 122.8125 C-59.16388997 111.83611003 -66.16677877 98.63222306 -66.32958984 83.03271484 C-66.3239502 82.09379395 -66.31831055 81.15487305 -66.3125 80.1875 C-66.30686035 79.20990723 -66.3012207 78.23231445 -66.29541016 77.22509766 C-66.18051507 70.41216042 -65.68387688 64.33354279 -63 58 C-62.5978125 57.02160156 -62.195625 56.04320312 -61.78125 55.03515625 C-54.21955236 38.37841673 -41.54595155 30.42372237 -25 24 C-25.33 16.41 -25.66 8.82 -26 1 C-23.6031335 3.3968665 -23.71718867 4.07028314 -23.5859375 7.3515625 C-23.55032715 8.11807129 -23.5147168 8.88458008 -23.47802734 9.67431641 C-23.44402832 10.64804199 -23.4100293 11.62176758 -23.375 12.625 C-23.25125 15.71875 -23.1275 18.8125 -23 22 C-16.07 22 -9.14 22 -2 22 C-1.71158124 16.25656073 -1.71158124 16.25656073 -1.43188477 10.51269531 C-1.39377686 9.79178711 -1.35566895 9.07087891 -1.31640625 8.328125 C-1.27974854 7.5949707 -1.24309082 6.86181641 -1.20532227 6.10644531 C-0.99885215 3.98822395 -0.56867914 2.0480544 0 0 Z M-35 39 C-46.20729251 52.20311172 -47.98907932 69.94039953 -47.20410156 86.58984375 C-46.03673677 100.37480218 -41.18284479 112.49101994 -31 122 C-24.48759355 126.93857489 -16.48368186 127.41040294 -8.546875 126.81640625 C-1.41375695 125.6067691 4.43704351 122.17462855 8.98046875 116.546875 C19.98879105 100.1165432 22.09878096 80.92169877 18.34228516 61.79956055 C16.06412746 51.11796126 12.22439723 41.56259558 3.125 35 C2.09375 34.34 1.0625 33.68 0 33 C-0.66 33.33 -1.32 33.66 -2 34 C-2.5624619 36.99473475 -2.99888757 39.92879604 -3.3671875 42.94921875 C-3.48677826 43.86622559 -3.60636902 44.78323242 -3.72958374 45.72802734 C-3.98569531 47.6946257 -4.23801109 49.66172133 -4.48693848 51.62924194 C-5.12818622 56.68282486 -5.80209214 61.73200994 -6.4765625 66.78125 C-6.60760376 67.76518234 -6.73864502 68.74911469 -6.87365723 69.76286316 C-7.85858205 77.09791852 -8.93919432 84.40247002 -10.25 91.6875 C-10.40065918 92.55656982 -10.55131836 93.42563965 -10.70654297 94.32104492 C-11.0642476 96.22927238 -11.5193651 98.11896977 -12 100 C-12.99 100.495 -12.99 100.495 -14 101 C-14.04463379 100.38141113 -14.08926758 99.76282227 -14.13525391 99.12548828 C-14.73813636 91.65546167 -15.83211787 84.3113154 -17.04165649 76.91772461 C-19.4236431 62.32094208 -21.38703932 47.70345224 -23 33 C-28.55051856 33 -31.03447266 35.29475824 -35 39 Z " fill="#F2F3F2" transform="translate(361,817)"/>
<path d="M0 0 C0.75643295 0.00142502 1.51286591 0.00285004 2.29222107 0.00431824 C3.57849144 -0.00029671 3.57849144 -0.00029671 4.89074707 -0.00500488 C5.81785995 0.00218063 6.74497284 0.00936615 7.70018005 0.01676941 C8.64940842 0.01722763 9.59863678 0.01768585 10.57662964 0.01815796 C12.58486683 0.02118178 14.59310164 0.02907192 16.6013031 0.04142761 C19.68708029 0.05968377 22.77255763 0.06193734 25.85838318 0.06169128 C27.80565142 0.06660633 29.75291761 0.07243459 31.70018005 0.07926941 C33.09388573 0.08093864 33.09388573 0.08093864 34.51574707 0.0826416 C35.37010849 0.08902145 36.22446991 0.09540131 37.10472107 0.10197449 C37.86035843 0.10578629 38.61599579 0.10959808 39.39453125 0.11352539 C41.1337738 0.24723816 41.1337738 0.24723816 42.1337738 1.24723816 C42.17441212 2.91340931 42.17649481 4.58111911 42.1337738 6.24723816 C41.2468988 6.53598816 40.3600238 6.82473816 39.4462738 7.12223816 C33.80759322 8.87123883 33.80759322 8.87123883 29.1337738 12.24723816 C27.70124247 19.67117414 28.02151783 27.21494938 28.0712738 34.74723816 C28.07578552 36.04661316 28.08029724 37.34598816 28.08494568 38.68473816 C28.09666461 41.87228641 28.11307161 45.0597377 28.1337738 48.24723816 C33.52325836 47.05535998 36.93631606 43.70805597 41.1337738 40.24723816 C41.80924255 39.70841003 42.4847113 39.16958191 43.1806488 38.61442566 C48.06507793 34.57011834 51.95163021 29.99905275 55.87986755 25.03239441 C58.65678833 21.60094811 61.6460953 18.40495356 64.70018005 15.21989441 C66.52569775 13.11436855 66.52569775 13.11436855 66.1337738 9.24723816 C63.70704813 7.4575479 63.70704813 7.4575479 61.1337738 6.24723816 C62.0087738 1.37223816 62.0087738 1.37223816 63.1337738 0.24723816 C65.70396865 0.13391723 68.24628858 0.08306331 70.81736755 0.07926941 C71.58807083 0.07594101 72.35877411 0.07261261 73.15283203 0.06918335 C74.78620302 0.06411106 76.4195844 0.06177512 78.05296326 0.06193542 C80.5572868 0.05975036 83.06116901 0.04160221 85.56541443 0.02262878 C87.14939729 0.01969469 88.73338225 0.01771 90.31736755 0.01676941 C91.0694902 0.00958389 91.82161285 0.00239838 92.5965271 -0.00500488 C97.90495101 0.01841537 97.90495101 0.01841537 100.1337738 2.24723816 C99.8837738 4.80973816 99.8837738 4.80973816 99.1337738 7.24723816 C96.61008771 8.50908121 94.37255358 8.63947574 91.5712738 8.99723816 C76.96442363 11.46355531 68.08021493 22.3693803 58.9384613 33.23942566 C55.83583622 36.69126395 52.38552287 39.80297578 48.9775238 42.95036316 C46.96323386 45.0070086 46.96323386 45.0070086 47.0165863 47.16520691 C48.70777509 50.31696782 51.05008667 52.75131655 53.5087738 55.30973816 C54.09513611 55.92953552 54.68149841 56.54933289 55.28562927 57.18791199 C65.45804605 67.8411022 75.97506353 78.17128866 86.42332458 88.55265808 C88.07842982 90.19807301 89.7207593 91.85663512 91.33982849 93.53752136 C94.10341059 96.171349 97.32584888 96.93718596 100.8915863 98.12223816 C103.54089727 99.45150917 104.1211623 100.5166004 105.1337738 103.24723816 C101.4415306 106.93948136 95.49873148 105.79096849 90.5087738 105.87223816 C89.34475037 105.93024597 88.18072693 105.98825378 86.98143005 106.04801941 C78.51871747 106.17261201 78.51871747 106.17261201 74.63890076 103.58024597 C72.60438465 101.57222523 70.84954484 99.5307356 69.1337738 97.24723816 C68.47248474 96.45317566 67.81119568 95.65911316 67.12986755 94.84098816 C66.61553162 94.15005066 66.10119568 93.45911316 65.5712738 92.74723816 C61.2659243 87.22887351 56.49789058 82.19629819 51.67649841 77.13200378 C40.8705747 65.76840075 40.8705747 65.76840075 37.1962738 60.43473816 C35.04568951 58.15381543 33.88830844 57.62597942 31.00486755 56.61051941 C30.28097839 56.35182068 29.55708923 56.09312195 28.81126404 55.82658386 C27.98090637 55.53980774 27.98090637 55.53980774 27.1337738 55.24723816 C27.22841786 59.33693848 27.33473304 63.42616492 27.45115662 67.51530457 C27.48907626 68.90194229 27.52398833 70.28866606 27.5556488 71.67546082 C27.52168516 83.67150207 27.52168516 83.67150207 30.1337738 95.24723816 C33.04883836 97.19061453 33.96349073 97.52398483 37.2587738 97.80973816 C41.1337738 98.24723816 41.1337738 98.24723816 42.1337738 99.24723816 C42.2587738 101.74723816 42.2587738 101.74723816 42.1337738 104.24723816 C41.1337738 105.24723816 41.1337738 105.24723816 39.34310913 105.36749268 C38.56367447 105.36527206 37.78423981 105.36305145 36.98118591 105.36076355 C36.10034836 105.36068802 35.2195108 105.36061249 34.3119812 105.36053467 C33.3546962 105.35537338 32.39741119 105.3502121 31.41111755 105.34489441 C30.43590652 105.34347946 29.4606955 105.34206451 28.45593262 105.34060669 C25.32768238 105.33498949 22.19950257 105.32243409 19.0712738 105.30973816 C16.95604046 105.30472537 14.840806 105.30016208 12.72557068 105.29606628 C7.52828084 105.28501447 2.33103235 105.26825962 -2.8662262 105.24723816 C-3.4912262 102.87223816 -3.4912262 102.87223816 -3.8662262 100.24723816 C-1.15127687 97.53228883 1.34849449 97.48092531 5.0400238 96.80973816 C7.33353451 96.38042966 7.33353451 96.38042966 9.1337738 94.24723816 C10.28640938 90.17803415 10.27254661 86.19122829 10.29490662 81.9818573 C10.29987152 81.2690007 10.30483643 80.5561441 10.30995178 79.82168579 C10.32449733 77.47524535 10.33136155 75.12887243 10.3368988 72.78239441 C10.34265517 71.14481608 10.34841284 69.50723775 10.35417175 67.86965942 C10.36465914 64.44090971 10.37051704 61.01218329 10.37400818 57.5834198 C10.37949752 53.19753467 10.40354435 48.81195924 10.43198013 44.4261713 C10.45063152 41.04519761 10.45581337 37.6642983 10.45734406 34.28327751 C10.46036391 32.66659789 10.46836989 31.04991937 10.48152924 29.43329048 C10.49864756 27.16929309 10.49669613 24.90604998 10.49021912 22.64201355 C10.49386475 21.35581619 10.49751038 20.06961884 10.50126648 18.7444458 C10.09903551 14.91665467 9.17237494 12.49575147 7.1337738 9.24723816 C4.6762302 8.10787128 4.6762302 8.10787128 1.9462738 7.87223816 C1.04521912 7.74075378 0.14416443 7.60926941 -0.78419495 7.47380066 C-1.47126526 7.39903503 -2.15833557 7.32426941 -2.8662262 7.24723816 C-3.4912262 4.87223816 -3.4912262 4.87223816 -3.8662262 2.24723816 C-1.8662262 0.24723816 -1.8662262 0.24723816 0 0 Z " fill="#EDEEED" transform="translate(506.86622619628906,842.7527618408203)"/>
<path d="M0 0 C4.76863437 3.51600397 7.80250552 7.16714256 9 13.0625 C9.39123213 17.80277762 7.66917354 21.35166783 5 25.1875 C1.78757251 28.20523491 -0.97003869 29.09213321 -5.375 29.5 C-9.55909865 29.13930184 -11.03524352 28.06241538 -14 25.1875 C-12.74381926 21.41895777 -11.33985294 21.10791544 -8 19.1875 C-6.24983293 15.68716587 -7.16390573 11.91011022 -8 8.1875 C-10.12147676 4.87799626 -11.80928572 4.25901785 -15.5 2.875 C-22.29368477 1.46282957 -29.37108481 1.84998175 -35.5625 5 C-39.76516054 8.77161843 -41.75132063 11.65097042 -42.3125 17.375 C-41.91284388 22.25080465 -41.13484052 25.37565167 -38 29.1875 C-31.53493284 34.40680671 -23.97650487 37.68711348 -16.47290039 41.10913086 C-3.80915707 46.91186115 7.84668084 52.4399307 13 66.1875 C15.40631235 74.71897105 14.00287594 82.40853995 10 90.1875 C3.58043115 99.09937205 -6.43799478 103.24339464 -17 105.1875 C-19.92348146 105.46860399 -22.81428697 105.52224266 -25.75 105.5 C-26.5349585 105.49436035 -27.31991699 105.4887207 -28.12866211 105.48291016 C-38.52746463 105.26771109 -48.09285703 103.39104127 -56 96.1875 C-60.32233774 90.64049989 -61.58665838 85.11006891 -61 78.1875 C-59.65470814 74.62686339 -57.72526461 71.86880918 -54.9375 69.25 C-50.4121552 67.61317316 -45.7612014 67.59714169 -41 68.1875 C-39 70.1875 -39 70.1875 -39 74.1875 C-39.66 74.744375 -40.32 75.30125 -41 75.875 C-43.65814586 78.94848115 -43.51290614 80.98157135 -43.32421875 84.9375 C-42.71413762 89.17131602 -41.16602839 92.09669925 -38.0625 95 C-31.77808186 98.61830135 -22.58645116 98.17811105 -15.703125 96.69140625 C-10.8248338 94.78110195 -7.35310802 91.44268004 -4.6875 87 C-3.34291732 81.49943449 -2.90067389 75.65015638 -5.4375 70.4375 C-11.38581895 61.94732382 -22.90136263 58.34672113 -32.02929688 54.41992188 C-42.63209908 49.73087151 -51.47073299 44.71555084 -57 34.1875 C-59.28388379 27.33584864 -59.52502235 16.29217527 -56.5 9.5625 C-50.81402502 0.72645526 -42.47256762 -3.02765105 -32.546875 -5.3984375 C-21.43377713 -7.20516813 -9.66003301 -6.01384408 0 0 Z " fill="#F1F2F1" transform="translate(477,845.8125)"/>
<path d="M0 0 C9.75514277 0.1795425 16.48616072 1.66556042 23.7109375 8.3984375 C34.25299168 19.67705442 40.06345193 35.44830131 46.5 49.3125 C47.16 49.3125 47.82 49.3125 48.5 49.3125 C53.23721781 40.69817377 57.72361132 31.97775367 62 23.125 C62.44520996 22.21661377 62.89041992 21.30822754 63.34912109 20.37231445 C63.75984863 19.513396 64.17057617 18.65447754 64.59375 17.76953125 C65.14579102 16.6244812 65.14579102 16.6244812 65.70898438 15.45629883 C66.73077718 13.06789734 66.73077718 13.06789734 66.5 9.3125 C65.80132813 9.19132813 65.10265625 9.07015625 64.3828125 8.9453125 C63.01769531 8.69394531 63.01769531 8.69394531 61.625 8.4375 C60.72007812 8.27507813 59.81515625 8.11265625 58.8828125 7.9453125 C56.5 7.3125 56.5 7.3125 54.5 5.3125 C55.03571429 1.77678571 55.03571429 1.77678571 56.5 0.3125 C59.21554392 0.19909026 61.90470043 0.1483198 64.62109375 0.14453125 C65.8437368 0.13953865 65.8437368 0.13953865 67.09107971 0.13444519 C68.81860793 0.12937258 70.54614598 0.12703697 72.27368164 0.12719727 C74.92285245 0.12501208 77.57160616 0.10686379 80.22070312 0.08789062 C81.8958319 0.08495656 83.57096267 0.08297185 85.24609375 0.08203125 C86.04196396 0.07484573 86.83783417 0.06766022 87.65782166 0.06025696 C93.27117773 0.08367773 93.27117773 0.08367773 95.5 2.3125 C95.125 4.9375 95.125 4.9375 94.5 7.3125 C93.64277344 7.43625 92.78554688 7.56 91.90234375 7.6875 C90.75894531 7.89375 89.61554688 8.1 88.4375 8.3125 C87.31214844 8.498125 86.18679688 8.68375 85.02734375 8.875 C75.05932453 12.9372714 70.97004708 24.47587865 66.4375 33.5625 C65.75040739 34.91850558 65.06226171 36.2739781 64.37304688 37.62890625 C63.03221457 40.26953354 61.70103073 42.91465527 60.37841797 45.56445312 C59.17018085 47.98418929 57.94367947 50.39096645 56.70361328 52.79492188 C56.16333496 53.84744141 55.62305664 54.89996094 55.06640625 55.984375 C54.59275635 56.89799805 54.11910645 57.81162109 53.63110352 58.75292969 C50.99468951 64.71886201 51.31672988 70.78346792 51.3125 77.1875 C51.29413086 78.63962891 51.29413086 78.63962891 51.27539062 80.12109375 C51.26429949 85.55575092 51.46359152 90.23839249 53.5 95.3125 C56.40377931 97.56155951 56.40377931 97.56155951 60.0625 97.8125 C63.5 98.3125 63.5 98.3125 65.5 100.3125 C65.17 101.9625 64.84 103.6125 64.5 105.3125 C49.98 105.3125 35.46 105.3125 20.5 105.3125 C20.17 103.6625 19.84 102.0125 19.5 100.3125 C22.21494932 97.59755068 24.71472069 97.54618715 28.40625 96.875 C30.6997607 96.4456915 30.6997607 96.4456915 32.5 94.3125 C36.72770372 81.7844391 35.1533661 64.3406198 29.5 52.625 C28.2869091 50.23554942 27.03331047 47.88079397 25.72705078 45.54101562 C24.54014473 43.38540909 23.45735665 41.2070573 22.40234375 38.984375 C20.52880045 35.04143476 18.55685629 31.16285331 16.5 27.3125 C16.1714502 26.69697266 15.84290039 26.08144531 15.50439453 25.44726562 C10.49696963 16.24865786 6.01832544 11.17508789 -3.9375 7.75 C-7.5 6.3125 -7.5 6.3125 -8.34765625 4.34765625 C-8.42306641 3.34025391 -8.42306641 3.34025391 -8.5 2.3125 C-5.70363238 -0.48386762 -3.90485016 0.01273321 0 0 Z " fill="#EFF1EF" transform="translate(620.5,842.6875)"/>
<path d="M0 0 C1.14250465 0.00333092 1.14250465 0.00333092 2.30809021 0.00672913 C3.16890701 0.00680466 4.02972382 0.00688019 4.91662598 0.00695801 C5.8520372 0.01211929 6.78744843 0.01728058 7.75120544 0.02259827 C8.70422043 0.02401321 9.65723541 0.02542816 10.63912964 0.02688599 C13.69605085 0.032503 16.75289996 0.04505836 19.80979919 0.05775452 C21.87685543 0.06276733 23.94391281 0.06733061 26.01097107 0.07142639 C31.08977507 0.08247795 36.16852489 0.09975397 41.24729919 0.12025452 C41.90729919 1.77025452 42.56729919 3.42025452 43.24729919 5.12025452 C40.54459895 7.82295476 38.12694207 7.79128181 34.43870544 8.36244202 C31.47736595 9.38650594 30.80050935 10.39483444 29.24729919 13.12025452 C28.95227022 15.77710614 28.8268107 18.19887482 28.84324646 20.85462952 C28.83295158 22.01629639 28.83295158 22.01629639 28.82244873 23.20143127 C28.80416751 25.75789288 28.80801957 28.31374166 28.81370544 30.87025452 C28.80914463 32.64857686 28.80383935 34.42689744 28.79782104 36.20521545 C28.78888763 39.93087427 28.79131608 43.65631875 28.80125427 47.38197327 C28.81275083 52.15721523 28.7925234 56.93171849 28.76333714 61.7068634 C28.74499587 65.37860312 28.74526331 69.05016507 28.75097466 72.72193909 C28.75112809 74.48261044 28.74506547 76.24329369 28.73268318 78.00392151 C28.71781179 80.46504664 28.72842024 82.92479753 28.74559021 85.38587952 C28.73108826 86.47697021 28.73108826 86.47697021 28.71629333 87.59010315 C28.76656942 91.02998627 29.00973493 92.81419516 31.14706421 95.56776428 C33.42738556 97.25337406 34.63754292 97.65555858 37.43479919 97.80775452 C41.24729919 98.12025452 41.24729919 98.12025452 42.24729919 99.12025452 C42.37229919 101.62025452 42.37229919 101.62025452 42.24729919 104.12025452 C40.71997809 105.64757562 39.34725896 105.25477843 37.21824646 105.26551819 C36.36388504 105.27189804 35.50952362 105.27827789 34.62927246 105.28485107 C33.70013535 105.2859639 32.77099823 105.28707672 31.81370544 105.28822327 C30.86543381 105.29155167 29.91716217 105.29488007 28.94015503 105.29830933 C26.9301553 105.30338271 24.92014712 105.30571753 22.91014099 105.30555725 C19.826423 105.30774274 16.74306313 105.32589135 13.65940857 105.34486389 C11.71084209 105.34779786 9.7622739 105.34978263 7.81370544 105.35072327 C6.88659256 105.35790878 5.95947968 105.3650943 5.00427246 105.37249756 C4.14675888 105.36942093 3.2892453 105.3663443 2.40574646 105.36317444 C1.64931351 105.36459946 0.89288055 105.36602448 0.11352539 105.36749268 C-1.75270081 105.12025452 -1.75270081 105.12025452 -3.75270081 103.12025452 C-3.21698652 99.58454023 -3.21698652 99.58454023 -1.75270081 98.12025452 C-0.47395081 97.99650452 0.80479919 97.87275452 2.12229919 97.74525452 C4.75843568 97.44344283 5.9930029 97.30072285 8.18479919 95.74525452 C10.65041382 91.9743145 10.40154225 88.11342848 10.40843201 83.79066467 C10.41339691 83.04723312 10.41836182 82.30380157 10.42347717 81.5378418 C10.43808274 79.07832412 10.4448979 76.61887093 10.45042419 74.15931702 C10.45617671 72.44922382 10.46193443 70.73913064 10.46769714 69.02903748 C10.47820238 65.44290364 10.48404825 61.8567922 10.48753357 58.27064514 C10.4930191 53.67834528 10.51705027 49.0863418 10.54550552 44.4941349 C10.5641401 40.96136106 10.56933792 37.42865853 10.57086945 33.89583969 C10.57389436 32.20297499 10.58191747 30.5101115 10.59505463 28.81729507 C10.61213349 26.44751245 10.61023073 24.07845283 10.60374451 21.70863342 C10.61756668 20.66265739 10.61756668 20.66265739 10.63166809 19.59555054 C10.59472201 15.28057554 9.90672439 12.54473567 7.24729919 9.12025452 C5.07246325 8.17404962 5.07246325 8.17404962 2.68479919 7.93275452 C-1.57702513 7.29593019 -1.57702513 7.29593019 -3.75270081 5.12025452 C-3.00817647 0.20639393 -3.00817647 0.20639393 0 0 Z " fill="#EFF0EF" transform="translate(239.75270080566406,842.8797454833984)"/>
<path d="M0 0 C0.75643295 0.00142502 1.51286591 0.00285004 2.29222107 0.00431824 C3.57849144 -0.00029671 3.57849144 -0.00029671 4.89074707 -0.00500488 C5.81785995 0.00218063 6.74497284 0.00936615 7.70018005 0.01676941 C8.64940842 0.01722763 9.59863678 0.01768585 10.57662964 0.01815796 C12.58486683 0.02118178 14.59310164 0.02907192 16.6013031 0.04142761 C19.68708029 0.05968377 22.77255763 0.06193734 25.85838318 0.06169128 C27.80565142 0.06660633 29.75291761 0.07243459 31.70018005 0.07926941 C33.09388573 0.08093864 33.09388573 0.08093864 34.51574707 0.0826416 C35.37010849 0.08902145 36.22446991 0.09540131 37.10472107 0.10197449 C37.86035843 0.10578629 38.61599579 0.10959808 39.39453125 0.11352539 C41.1337738 0.24723816 41.1337738 0.24723816 42.1337738 1.24723816 C42.17441212 2.91340931 42.17649481 4.58111911 42.1337738 6.24723816 C41.2468988 6.53598816 40.3600238 6.82473816 39.4462738 7.12223816 C33.80759322 8.87123883 33.80759322 8.87123883 29.1337738 12.24723816 C28.67565705 14.21959149 28.67565705 14.21959149 28.5087738 16.37223816 C28.3231488 18.29036316 28.3231488 18.29036316 28.1337738 20.24723816 C27.4737738 20.24723816 26.8137738 20.24723816 26.1337738 20.24723816 C26.16406677 21.10438416 26.19435974 21.96153015 26.22557068 22.84465027 C26.3411442 26.19472656 26.45257862 29.54487907 26.56019592 32.8952179 C26.60922509 34.42085677 26.65900875 35.94647159 26.70954895 37.47206116 C26.9925945 46.16462049 27.17667417 54.83912842 27.05955505 63.53630066 C27.05128693 64.27874527 27.0430188 65.02118988 27.03450012 65.78613281 C26.99322736 69.34006998 26.93070132 72.89143096 26.83299255 76.44425964 C26.66893802 86.96236882 26.66893802 86.96236882 31.1337738 96.24723816 C33.59873478 97.68836255 33.59873478 97.68836255 36.3212738 97.74723816 C37.20170349 97.84005066 38.08213318 97.93286316 38.98924255 98.02848816 C39.69693787 98.10067566 40.40463318 98.17286316 41.1337738 98.24723816 C42.1337738 99.24723816 42.1337738 99.24723816 42.2587738 101.74723816 C42.1337738 104.24723816 42.1337738 104.24723816 41.1337738 105.24723816 C39.75217266 105.34002146 38.36589343 105.36470859 36.98118591 105.36076355 C36.10034836 105.36068802 35.2195108 105.36061249 34.3119812 105.36053467 C33.3546962 105.35537338 32.39741119 105.3502121 31.41111755 105.34489441 C30.43590652 105.34347946 29.4606955 105.34206451 28.45593262 105.34060669 C25.32768238 105.33498949 22.19950257 105.32243409 19.0712738 105.30973816 C16.95604046 105.30472537 14.840806 105.30016208 12.72557068 105.29606628 C7.52828084 105.28501447 2.33103235 105.26825962 -2.8662262 105.24723816 C-3.4912262 102.87223816 -3.4912262 102.87223816 -3.8662262 100.24723816 C-1.15127687 97.53228883 1.34849449 97.48092531 5.0400238 96.80973816 C7.33353451 96.38042966 7.33353451 96.38042966 9.1337738 94.24723816 C10.28640938 90.17803415 10.27254661 86.19122829 10.29490662 81.9818573 C10.29987152 81.2690007 10.30483643 80.5561441 10.30995178 79.82168579 C10.32449733 77.47524535 10.33136155 75.12887243 10.3368988 72.78239441 C10.34265517 71.14481608 10.34841284 69.50723775 10.35417175 67.86965942 C10.36465914 64.44090971 10.37051704 61.01218329 10.37400818 57.5834198 C10.37949752 53.19753467 10.40354435 48.81195924 10.43198013 44.4261713 C10.45063152 41.04519761 10.45581337 37.6642983 10.45734406 34.28327751 C10.46036391 32.66659789 10.46836989 31.04991937 10.48152924 29.43329048 C10.49864756 27.16929309 10.49669613 24.90604998 10.49021912 22.64201355 C10.49386475 21.35581619 10.49751038 20.06961884 10.50126648 18.7444458 C10.09903551 14.91665467 9.17237494 12.49575147 7.1337738 9.24723816 C4.6762302 8.10787128 4.6762302 8.10787128 1.9462738 7.87223816 C1.04521912 7.74075378 0.14416443 7.60926941 -0.78419495 7.47380066 C-1.47126526 7.39903503 -2.15833557 7.32426941 -2.8662262 7.24723816 C-3.4912262 4.87223816 -3.4912262 4.87223816 -3.8662262 2.24723816 C-1.8662262 0.24723816 -1.8662262 0.24723816 0 0 Z " fill="#F4F5F4" transform="translate(506.86622619628906,842.7527618408203)"/>
<path d="M0 0 C1.05477539 -0.01160156 1.05477539 -0.01160156 2.13085938 -0.0234375 C6.27492034 -0.00790213 9.29308952 0.60946133 13.0625 2.25 C10.38002901 25.05531608 7.48447891 47.70501684 3.0625 70.25 C1.5775 70.745 1.5775 70.745 0.0625 71.25 C-0.90175647 65.41975544 -1.86184161 59.58884341 -2.81835938 53.75732422 C-3.14310925 51.78090676 -3.46892366 49.80466387 -3.79589844 47.82861328 C-9.33379978 14.34639382 -9.33379978 14.34639382 -8.9375 3.25 C-9.9275 2.92 -10.9175 2.59 -11.9375 2.25 C-8.1636697 -0.22014347 -4.35074124 -0.04759243 0 0 Z " fill="#ECECEC" transform="translate(346.9375,846.75)"/>
<path d="M0 0 C4.76863437 3.51600397 7.80250552 7.16714256 9 13.0625 C9.39123213 17.80277762 7.66917354 21.35166783 5 25.1875 C1.78757251 28.20523491 -0.97003869 29.09213321 -5.375 29.5 C-9.55909865 29.13930184 -11.03524352 28.06241538 -14 25.1875 C-12.74381926 21.41895777 -11.33985294 21.10791544 -8 19.1875 C-6.24983293 15.68716587 -7.16390573 11.91011022 -8 8.1875 C-10.16454828 4.81080468 -11.81557802 4.25109379 -15.625 2.9375 C-20.39572901 1.91134319 -25.14488243 2.00841779 -30 2.1875 C-29.01 0.5375 -28.02 -1.1125 -27 -2.8125 C-29.64 -3.1425 -32.28 -3.4725 -35 -3.8125 C-35 -4.1425 -35 -4.4725 -35 -4.8125 C-23.27328471 -7.49042393 -10.32555572 -6.42816459 0 0 Z " fill="#EAEAE8" transform="translate(477,845.8125)"/>
<path d="M0 0 C0.33 0 0.66 0 1 0 C1.10545004 7.36978588 0.98729336 14.5408737 0.0234375 21.85546875 C0.01570313 22.56316406 0.00796875 23.27085937 0 24 C0.66 24.66 1.32 25.32 2 26 C0.989375 25.835 -0.02125 25.67 -1.0625 25.5 C-9.82943269 24.41785625 -18.63416657 23.99656852 -27 27 C-29.375 26.625 -29.375 26.625 -31 26 C-29.02 25.34 -27.04 24.68 -25 24 C-25.33 16.41 -25.66 8.82 -26 1 C-23.6031335 3.3968665 -23.71718867 4.07028314 -23.5859375 7.3515625 C-23.55032715 8.11807129 -23.5147168 8.88458008 -23.47802734 9.67431641 C-23.44402832 10.64804199 -23.4100293 11.62176758 -23.375 12.625 C-23.25125 15.71875 -23.1275 18.8125 -23 22 C-16.07 22 -9.14 22 -2 22 C-1.71158124 16.25656073 -1.71158124 16.25656073 -1.43188477 10.51269531 C-1.39377686 9.79178711 -1.35566895 9.07087891 -1.31640625 8.328125 C-1.27974854 7.5949707 -1.24309082 6.86181641 -1.20532227 6.10644531 C-0.99885215 3.98822395 -0.56867914 2.0480544 0 0 Z " fill="#BFC0BF" transform="translate(361,817)"/>
<path d="M0 0 C2.97069541 2.54631035 4.4775751 5.42230149 6 9 C5.67 9.66 5.34 10.32 5 11 C3.68 10.67 2.36 10.34 1 10 C1.37547676 23.23479262 1.84344 36.33447483 3.58984375 49.46484375 C4.11864278 54.02258779 4.14544471 58.4184916 4 63 C3.67 63 3.34 63 3 63 C0.72998164 45.81149788 -1.05740824 28.97222574 -1.125 11.625 C-1.12975342 10.59431396 -1.13450684 9.56362793 -1.1394043 8.50170898 C-1.137229 7.54466064 -1.13505371 6.5876123 -1.1328125 5.6015625 C-1.13168457 4.73869629 -1.13055664 3.87583008 -1.12939453 2.98681641 C-1 1 -1 1 0 0 Z " fill="#B3B3B3" transform="translate(114,248)"/>
<path d="M0 0 C0.33 0 0.66 0 1 0 C1.9886159 9.33544334 2.18480921 18.61665851 2.26036072 27.99273872 C2.28168474 30.61996858 2.30866943 33.2470896 2.33703613 35.87425232 C2.40626184 42.38561416 2.46643406 48.89705252 2.52606201 55.4085083 C2.57699341 60.94174795 2.63175218 66.47492235 2.69187927 72.00806999 C2.71840827 74.59557534 2.73923354 77.18308721 2.7598877 79.77064514 C2.77648364 81.34913435 2.79335485 82.92762069 2.81054688 84.50610352 C2.81473129 85.22452423 2.81891571 85.94294495 2.82322693 86.68313599 C2.86170192 89.72619008 3.02969767 92.08909301 4 95 C2.02 95.495 2.02 95.495 0 96 C0 64.32 0 32.64 0 0 Z " fill="#9B9B9B" transform="translate(373,698)"/>
<path d="M0 0 C0.33 0 0.66 0 1 0 C1 22.44 1 44.88 1 68 C0.67 67.34 0.34 66.68 0 66 C-0.99 65.67 -1.98 65.34 -3 65 C-4.6875 61.4375 -4.6875 61.4375 -6 58 C-5.34 58 -4.68 58 -4 58 C-4 58.66 -4 59.32 -4 60 C-3.34 60 -2.68 60 -2 60 C-2 59.34 -2 58.68 -2 58 C-1.34 58 -0.68 58 0 58 C0 38.86 0 19.72 0 0 Z " fill="#EDEDED" transform="translate(321,724)"/>
<path d="M0 0 C0.66 0 1.32 0 2 0 C2 0.66 2 1.32 2 2 C14.54 1.67 27.08 1.34 40 1 C32.74985072 4.62507464 25.44413738 4.18290801 17.5 4.1875 C15.82744141 4.20586914 15.82744141 4.20586914 14.12109375 4.22460938 C4.03486418 4.24264197 4.03486418 4.24264197 -1 2 C-0.67 1.34 -0.34 0.68 0 0 Z " fill="#D1D1D1" transform="translate(483,417)"/>
<path d="M0 0 C0.33 0.66 0.66 1.32 1 2 C-3.09521566 7.76308531 -7.69032985 12.95373307 -12.625 18 C-13.17502686 18.57580811 -13.72505371 19.15161621 -14.29174805 19.74487305 C-17.36612889 22.83405904 -19.44033792 24.72879333 -24 25 C-20.94500568 21.25763196 -17.9519427 17.85752508 -14.25 14.75 C-9.00098176 10.30461052 -4.54195675 5.14693049 0 0 Z " fill="#CCCCCC" transform="translate(308,538)"/>
<path d="M0 0 C3 1 3 1 4.08984375 3.015625 C5.26991458 6.88504179 5.92664931 10.75995281 6.5625 14.75 C6.9575312 19.77938451 6.9575312 19.77938451 9 24 C9.07179964 25.51928038 9.08392007 27.04167482 9.0625 28.5625 C9.05347656 29.38878906 9.04445313 30.21507812 9.03515625 31.06640625 C9.02355469 31.70449219 9.01195312 32.34257813 9 33 C7.49464584 30.2177337 6.57784444 27.6862896 5.9296875 24.59375 C5.75566406 23.76746094 5.58164062 22.94117188 5.40234375 22.08984375 C5.22832031 21.23519531 5.05429687 20.38054688 4.875 19.5 C4.69324219 18.64535156 4.51148438 17.79070313 4.32421875 16.91015625 C3.54031733 13.13210503 3 9.88870339 3 6 C2.34 6 1.68 6 1 6 C0.67 6.66 0.34 7.32 0 8 C0 5.36 0 2.72 0 0 Z " fill="#9EA0A0" transform="translate(354,584)"/>
<path d="M0 0 C1.32 0.66 2.64 1.32 4 2 C4 2.99 4 3.98 4 5 C2.25093469 5.64836042 0.50070781 6.29358784 -1.25 6.9375 C-2.22453125 7.29714844 -3.1990625 7.65679687 -4.203125 8.02734375 C-7.94272565 9.32784733 -11.14132798 10.12771721 -15.109375 10.09765625 C-15.86347656 10.09443359 -16.61757813 10.09121094 -17.39453125 10.08789062 C-18.17183594 10.07951172 -18.94914062 10.07113281 -19.75 10.0625 C-20.54277344 10.05798828 -21.33554687 10.05347656 -22.15234375 10.04882812 C-24.10159508 10.03708565 -26.05080738 10.01915146 -28 10 C-28 9.67 -28 9.34 -28 9 C-26.74445313 8.87882812 -25.48890625 8.75765625 -24.1953125 8.6328125 C-15.69560483 7.78954377 -7.33919382 6.91391334 1 5 C0.67 3.35 0.34 1.7 0 0 Z " fill="#BDBDBD" transform="translate(435,488)"/>
<path d="M0 0 C1.56041016 -0.01740234 1.56041016 -0.01740234 3.15234375 -0.03515625 C4.14878906 -0.03128906 5.14523437 -0.02742187 6.171875 -0.0234375 C7.52684082 -0.01836182 7.52684082 -0.01836182 8.90917969 -0.01318359 C11.65548163 0.44224195 12.53636457 1.23755465 14.25 3.375 C12.7340625 3.1275 12.7340625 3.1275 11.1875 2.875 C2.42056731 1.79285625 -6.38416657 1.37156852 -14.75 4.375 C-17.125 4 -17.125 4 -18.75 3.375 C-12.49616393 0.03608752 -7.00633909 -0.07931705 0 0 Z " fill="#AEB0AF" transform="translate(348.75,839.625)"/>
<path d="M0 0 C1.96120931 0.0659734 3.92007579 0.2048066 5.875 0.375 C7.62490234 0.52388672 7.62490234 0.52388672 9.41015625 0.67578125 C11.18712891 0.83626953 11.18712891 0.83626953 13 1 C14.09183594 1.09667969 15.18367188 1.19335938 16.30859375 1.29296875 C18.87295728 1.52306119 21.43668317 1.75856535 24 2 C24 2.33 24 2.66 24 3 C21.27076612 3.0270817 18.54180363 3.04687847 15.8125 3.0625 C15.04357422 3.07087891 14.27464844 3.07925781 13.48242188 3.08789062 C9.51473211 3.10491934 5.87428766 2.98604115 2 2 C2.66 3.98 3.32 5.96 4 8 C1.47411298 5.63707344 0.11179163 4.33537489 -1 1 C-0.67 0.67 -0.34 0.34 0 0 Z " fill="#AEAEAE" transform="translate(160,416)"/>
<path d="M0 0 C0.33 1.32 0.66 2.64 1 4 C1.721875 3.67 2.44375 3.34 3.1875 3 C6.01697427 1.99396471 8.02895466 1.83022598 11 2 C11.14285714 10.57142857 11.14285714 10.57142857 10 14 C9.34 14 8.68 14 8 14 C8.33 10.7 8.66 7.4 9 4 C5.7 4.66 2.4 5.32 -1 6 C-1 2 -1 2 0 0 Z " fill="#AEAEAE" transform="translate(297,366)"/>
<path d="M0 0 C0.66 0.33 1.32 0.66 2 1 C0.98679687 2.10408203 0.98679687 2.10408203 -0.046875 3.23046875 C-0.94799772 4.21607173 -1.84903483 5.20175299 -2.75 6.1875 C-3.63171875 7.15042969 -4.5134375 8.11335938 -5.421875 9.10546875 C-7.99846904 11.92544373 -7.99846904 11.92544373 -10.140625 14.80078125 C-12 17 -12 17 -15 18 C-13.34890181 13.93122232 -10.46404222 11.02285879 -7.5 7.875 C-7.00113281 7.33746094 -6.50226563 6.79992187 -5.98828125 6.24609375 C-4.02214504 4.13236554 -2.04136111 2.04136111 0 0 Z " fill="#BEBEBE" transform="translate(320,315)"/>
<path d="M0 0 C0 3.63 0 7.26 0 11 C-0.33 10.34 -0.66 9.68 -1 9 C-1.99 8.67 -2.98 8.34 -4 8 C-5.6875 4.4375 -5.6875 4.4375 -7 1 C-6.34 1 -5.68 1 -5 1 C-5 1.66 -5 2.32 -5 3 C-4.34 3 -3.68 3 -3 3 C-3 2.34 -3 1.68 -3 1 C-1 0 -1 0 0 0 Z " fill="#E1E1E1" transform="translate(322,781)"/>
<path d="M0 0 C0.33 0.99 0.66 1.98 1 3 C-0.328125 4.9375 -0.328125 4.9375 -2.25 7 C-2.87390625 7.680625 -3.4978125 8.36125 -4.140625 9.0625 C-4.75421875 9.701875 -5.3678125 10.34125 -6 11 C-6.53109375 11.5775 -7.0621875 12.155 -7.609375 12.75 C-9 14 -9 14 -11 14 C-9.42219077 10.28954753 -7.09296752 7.70093616 -4.375 4.75 C-3.55773437 3.85796875 -2.74046875 2.9659375 -1.8984375 2.046875 C-1.27195312 1.37140625 -0.64546875 0.6959375 0 0 Z " fill="#CBCDCD" transform="translate(311,575)"/>
<path d="M0 0 C0.66 0 1.32 0 2 0 C1.22095672 11.52164009 1.22095672 11.52164009 -1 17 C-1.66 17 -2.32 17 -3 17 C-3 15.35 -3 13.7 -3 12 C-2.67 12 -2.34 12 -2 12 C-1.34 8.04 -0.68 4.08 0 0 Z " fill="#B9B9B9" transform="translate(350,901)"/>
<path d="M0 0 C0.99 0.33 1.98 0.66 3 1 C3 1.66 3 2.32 3 3 C-6.9 3 -16.8 3 -27 3 C-27 2.67 -27 2.34 -27 2 C-18.09 2 -9.18 2 0 2 C0 1.34 0 0.68 0 0 Z " fill="#858585" transform="translate(212,417)"/>
<path d="M0 0 C0.33 0.66 0.66 1.32 1 2 C4.63 2 8.26 2 12 2 C11.24872886 5.75635569 10.75994274 7.83210307 9 11 C8.34 11 7.68 11 7 11 C7.66 8.69 8.32 6.38 9 4 C4.545 4.495 4.545 4.495 0 5 C-0.33 3.68 -0.66 2.36 -1 1 C-0.67 0.67 -0.34 0.34 0 0 Z " fill="#ACACAC" transform="translate(302,336)"/>
<path d="M0 0 C0.66 0.33 1.32 0.66 2 1 C0 3 -2 5 -4 7 C-1.36 7.99 1.28 8.98 4 10 C-0.76625167 11.19156292 -1.87879351 10.3415946 -6 8 C-6 5 -6 5 -4.6875 3.61328125 C-3.125 2.40885417 -1.5625 1.20442708 0 0 Z " fill="#BDBDBD" transform="translate(264,485)"/>
<path d="M0 0 C0.66 0 1.32 0 2 0 C2 0.66 2 1.32 2 2 C10.58 2 19.16 2 28 2 C28 2.33 28 2.66 28 3 C18.76 3 9.52 3 0 3 C0 2.01 0 1.02 0 0 Z " fill="#787878" transform="translate(483,417)"/>
<path d="M0 0 C1.32 0.99 2.64 1.98 4 3 C3.67 3.66 3.34 4.32 3 5 C2.34 4.67 1.68 4.34 1 4 C0.67 10.27 0.34 16.54 0 23 C-0.33 23 -0.66 23 -1 23 C-1.02887512 19.35418313 -1.04675585 15.70839537 -1.0625 12.0625 C-1.07087891 11.02158203 -1.07925781 9.98066406 -1.08789062 8.90820312 C-1.09272461 7.42416992 -1.09272461 7.42416992 -1.09765625 5.91015625 C-1.10289307 4.99371338 -1.10812988 4.07727051 -1.11352539 3.13305664 C-1 1 -1 1 0 0 Z " fill="#989898" transform="translate(539,106)"/>
<path d="M0 0 C0.66 0.33 1.32 0.66 2 1 C-0.97 4.63 -3.94 8.26 -7 12 C-7.99 11.34 -8.98 10.68 -10 10 C-6.7 6.7 -3.4 3.4 0 0 Z " fill="#C7C7C6" transform="translate(200,57)"/>
<path d="M0 0 C0.33 0 0.66 0 1 0 C1.02505615 0.59014893 1.0501123 1.18029785 1.07592773 1.78833008 C1.19200052 4.46326814 1.31467572 7.1378638 1.4375 9.8125 C1.47681641 10.74126953 1.51613281 11.67003906 1.55664062 12.62695312 C1.59853516 13.51962891 1.64042969 14.41230469 1.68359375 15.33203125 C1.72025146 16.15421143 1.75690918 16.9763916 1.79467773 17.82348633 C1.93427772 20.17905178 1.93427772 20.17905178 3 23 C1.68 23.33 0.36 23.66 -1 24 C-0.67 16.08 -0.34 8.16 0 0 Z " fill="#A7A8A8" transform="translate(374,770)"/>
<path d="M0 0 C2.97 0.99 5.94 1.98 9 3 C8.01 3.33 7.02 3.66 6 4 C6 4.99 6 5.98 6 7 C2.63279613 5.60667426 1.0140476 4.0210714 -1 1 C-0.67 0.67 -0.34 0.34 0 0 Z " fill="#BDBDBD" transform="translate(421,11)"/>
<path d="M0 0 C0 3.13751221 -0.35179805 4.39757586 -2 7 C-2.99 7.33 -3.98 7.66 -5 8 C-5.165 8.66 -5.33 9.32 -5.5 10 C-5.665 10.66 -5.83 11.32 -6 12 C-6.99 12.33 -7.98 12.66 -9 13 C-7.50923566 9.7173068 -5.61379679 7.06922559 -3.375 4.25 C-2.74335938 3.45078125 -2.11171875 2.6515625 -1.4609375 1.828125 C-0.97882813 1.22484375 -0.49671875 0.6215625 0 0 Z " fill="#C6C6C6" transform="translate(290,600)"/>
<path d="M0 0 C5.75762166 1.08896667 11.39247819 2.29336293 17 4 C17 4.33 17 4.66 17 5 C10.54487966 5.56131481 5.84560277 3.63463787 0 1 C0 0.67 0 0.34 0 0 Z " fill="#BCBCBC" transform="translate(173,374)"/>
<path d="M0 0 C0.33 0 0.66 0 1 0 C1.7013076 6.59229145 -0.50397814 10.49376557 -4 16 C-5 14 -5 14 -4.00390625 10.7421875 C-3.53110016 9.4502948 -3.05028031 8.16131362 -2.5625 6.875 C-2.31951172 6.21628906 -2.07652344 5.55757812 -1.82617188 4.87890625 C-1.22421679 3.25008662 -0.61297588 1.62470425 0 0 Z " fill="#BFC1C2" transform="translate(329,579)"/>
<path d="M0 0 C0.33 0.66 0.66 1.32 1 2 C2.36125 1.505 2.36125 1.505 3.75 1 C7 0 7 0 11 0 C11 0.66 11 1.32 11 2 C6.71 2.66 2.42 3.32 -2 4 C-2 3.01 -2 2.02 -2 1 C-1.34 0.67 -0.68 0.34 0 0 Z " fill="#BABABA" transform="translate(505,376)"/>
<path d="M0 0 C0.33 0.66 0.66 1.32 1 2 C0.02501855 3.5027237 -0.95509389 5.00211963 -1.9375 6.5 C-2.75541016 7.75296875 -2.75541016 7.75296875 -3.58984375 9.03125 C-4.05519531 9.6809375 -4.52054688 10.330625 -5 11 C-5.33 11 -5.66 11 -6 11 C-6 9.35 -6 7.7 -6 6 C-5.01 5.67 -4.02 5.34 -3 5 C-3 4.01 -3 3.02 -3 2 C-2.01 1.34 -1.02 0.68 0 0 Z " fill="#C2C3C4" transform="translate(558,260)"/>
<path d="M0 0 C0.33 0 0.66 0 1 0 C1.04898437 0.85464844 1.09796875 1.70929687 1.1484375 2.58984375 C1.22320312 3.69457031 1.29796875 4.79929687 1.375 5.9375 C1.44460938 7.03964844 1.51421875 8.14179687 1.5859375 9.27734375 C1.72257812 10.17582031 1.85921875 11.07429687 2 12 C2.66 12.33 3.32 12.66 4 13 C3.01 13.99 2.02 14.98 1 16 C0 15 0 15 -0.09765625 11.62109375 C-0.09098369 10.22652923 -0.07902532 8.83198257 -0.0625 7.4375 C-0.05798828 6.72658203 -0.05347656 6.01566406 -0.04882812 5.28320312 C-0.03700864 3.52209987 -0.01907263 1.76103964 0 0 Z " fill="#AEB0B0" transform="translate(417,690)"/>
<path d="M0 0 C0.33 0.66 0.66 1.32 1 2 C-0.1796875 4.3828125 -0.1796875 4.3828125 -1.875 7.125 C-2.42929687 8.03507813 -2.98359375 8.94515625 -3.5546875 9.8828125 C-4.03164063 10.58148437 -4.50859375 11.28015625 -5 12 C-5.33 12 -5.66 12 -6 12 C-6 10.35 -6 8.7 -6 7 C-5.34 7 -4.68 7 -4 7 C-4 6.01 -4 5.02 -4 4 C-3.34 4 -2.68 4 -2 4 C-2 3.01 -2 2.02 -2 1 C-1.34 0.67 -0.68 0.34 0 0 Z " fill="#C2C3C4" transform="translate(328,573)"/>
<path d="M0 0 C4.75 1.875 4.75 1.875 7 3 C7 3.66 7 4.32 7 5 C6.01 5.495 6.01 5.495 5 6 C4.67 6.66 4.34 7.32 4 8 C0 2.25 0 2.25 0 0 Z " fill="#D3D4D5" transform="translate(367,572)"/>
<path d="M0 0 C1.32 0.33 2.64 0.66 4 1 C1.03 4.96 1.03 4.96 -2 9 C-2.33 7.68 -2.66 6.36 -3 5 C-2.34 5 -1.68 5 -1 5 C-0.67 3.35 -0.34 1.7 0 0 Z " fill="#C6C6C7" transform="translate(536,290)"/>
<path d="M0 0 C4.82360189 -0.19294408 8.49646738 0.24252386 13 2 C10.00519083 2.8723412 7.36424089 3.10829766 4.25 3.0625 C3.45078125 3.05347656 2.6515625 3.04445313 1.828125 3.03515625 C1.22484375 3.02355469 0.6215625 3.01195312 0 3 C0 2.01 0 1.02 0 0 Z " fill="#A5A5A5" transform="translate(442,443)"/>
<path d="M0 0 C0.99 0.33 1.98 0.66 3 1 C3 1.99 3 2.98 3 4 C3.99 4.33 4.98 4.66 6 5 C1.13103697 4.40380045 -3.32790951 3.43023178 -8 2 C-4.94736336 1.01879536 -3.05263664 1.01879536 0 2 C0 1.34 0 0.68 0 0 Z " fill="#BCBCBC" transform="translate(191,409)"/>
<path d="M0 0 C2.97 0 5.94 0 9 0 C9 0.66 9 1.32 9 2 C6.69 2 4.38 2 2 2 C2 2.99 2 3.98 2 5 C1.34 5 0.68 5 0 5 C0 3.35 0 1.7 0 0 Z " fill="#ADADAD" transform="translate(364,303)"/>
<path d="M0 0 C0 0.99 0 1.98 0 3 C-0.66 3 -1.32 3 -2 3 C-2.28875 4.134375 -2.5775 5.26875 -2.875 6.4375 C-3.24625 7.613125 -3.6175 8.78875 -4 10 C-4.99 10.495 -4.99 10.495 -6 11 C-5.38857603 3.54062751 -5.38857603 3.54062751 -3.5625 1 C-2 0 -2 0 0 0 Z " fill="#939393" transform="translate(333,544)"/>
<path d="M0 0 C0.33 0.66 0.66 1.32 1 2 C2.65 1.34 4.3 0.68 6 0 C4.02 2.97 4.02 2.97 2 6 C0.68 5.67 -0.64 5.34 -2 5 C-1.125 1.125 -1.125 1.125 0 0 Z " fill="#B8B8B8" transform="translate(520,314)"/>
<path d="M0 0 C0.66 0 1.32 0 2 0 C2 3.3 2 6.6 2 10 C1.67 10 1.34 10 1 10 C1 8.02 1 6.04 1 4 C0.34 4 -0.32 4 -1 4 C-1 5.65 -1 7.3 -1 9 C-1.33 9 -1.66 9 -2 9 C-2.25 3.375 -2.25 3.375 0 0 Z " fill="#9C9E9F" transform="translate(341,583)"/>
<path d="M0 0 C1.65 0 3.3 0 5 0 C5 0.66 5 1.32 5 2 C5.99 2 6.98 2 8 2 C8.33 2.99 8.66 3.98 9 5 C8.05125 4.649375 7.1025 4.29875 6.125 3.9375 C3.12939828 2.64973223 3.12939828 2.64973223 1 4 C0.67 2.68 0.34 1.36 0 0 Z " fill="#A8A8A8" transform="translate(409,461)"/>
<path d="M0 0 C1.2065625 0.0309375 1.2065625 0.0309375 2.4375 0.0625 C2.7675 0.7225 3.0975 1.3825 3.4375 2.0625 C2.1175 2.0625 0.7975 2.0625 -0.5625 2.0625 C0.0975 4.0425 0.7575 6.0225 1.4375 8.0625 C-1.08838702 5.69957344 -2.45070837 4.39787489 -3.5625 1.0625 C-2.5625 0.0625 -2.5625 0.0625 0 0 Z " fill="#B8B8B8" transform="translate(162.5625,415.9375)"/>
<path d="M0 0 C2.15377564 2.62198774 3.40072174 4.64404172 4 8 C2.35 7.67 0.7 7.34 -1 7 C-0.67 4.69 -0.34 2.38 0 0 Z " fill="#D3D3D3" transform="translate(116,251)"/>
<path d="M0 0 C0.66 0.66 1.32 1.32 2 2 C0.68 2.99 -0.64 3.98 -2 5 C-2 4.34 -2 3.68 -2 3 C-3.98 3.33 -5.96 3.66 -8 4 C-5.53721199 1.53721199 -3.29323018 1.00228745 0 0 Z " fill="#ADADAD" transform="translate(275,11)"/>
<path d="M0 0 C-0.99 1.485 -0.99 1.485 -2 3 C-2 2.34 -2 1.68 -2 1 C-5.96 1 -9.92 1 -14 1 C-14 0.67 -14 0.34 -14 0 C-12.41773035 -0.19627391 -10.83410729 -0.38165538 -9.25 -0.5625 C-8.36828125 -0.66691406 -7.4865625 -0.77132813 -6.578125 -0.87890625 C-4.11567549 -0.99456676 -2.33461936 -0.73638695 0 0 Z " fill="#A5A5A5" transform="translate(538,417)"/>
<path d="M0 0 C4.875 4.625 4.875 4.625 6 8 C4.68 7.67 3.36 7.34 2 7 C2 6.34 2 5.68 2 5 C1.34 4.67 0.68 4.34 0 4 C0 2.68 0 1.36 0 0 Z " fill="#BFBFBF" transform="translate(130,274)"/>
<path d="M0 0 C2.18975773 3.28463659 2.99806563 6.20696275 4 10 C3.34 9.67 2.68 9.34 2 9 C2 8.01 2 7.02 2 6 C1.01 6.33 0.02 6.66 -1 7 C-0.67 4.69 -0.34 2.38 0 0 Z " fill="#BDBFC0" transform="translate(367,580)"/>
<path d="M0 0 C0.66 0.33 1.32 0.66 2 1 C0.30820672 3.04219706 -0.63727666 3.91793306 -3.26171875 4.51171875 C-4.06222656 4.56972656 -4.86273438 4.62773438 -5.6875 4.6875 C-6.49574219 4.75324219 -7.30398438 4.81898438 -8.13671875 4.88671875 C-9.05904297 4.94279297 -9.05904297 4.94279297 -10 5 C-6.76527494 2.84351662 -3.62848922 1.38542316 0 0 Z " fill="#B0B0B0" transform="translate(269,571)"/>
<path d="M0 0 C2.97 0.495 2.97 0.495 6 1 C5.2884375 1.61875 5.2884375 1.61875 4.5625 2.25 C2.63715751 4.13326435 2.63715751 4.13326435 2 8 C1.34 5.36 0.68 2.72 0 0 Z " fill="#B4B4B4" transform="translate(295,285)"/>
<path d="M0 0 C2 0 2 0 3.5625 1.25 C5.17063667 3.2077316 5.67759879 4.50139066 6 7 C5.67 7.66 5.34 8.32 5 9 C4.16396622 7.68921847 3.3312426 6.37632511 2.5 5.0625 C2.0359375 4.33160156 1.571875 3.60070312 1.09375 2.84765625 C0 1 0 1 0 0 Z " fill="#B8B7B9" transform="translate(144,272)"/>
<path d="M0 0 C0.66 0 1.32 0 2 0 C0.8141763 3.37503669 -0.27573689 5.64722731 -3 8 C-3 6.02 -3 4.04 -3 2 C-2.01 2 -1.02 2 0 2 C0 1.34 0 0.68 0 0 Z " fill="#C7C7C5" transform="translate(241,48)"/>
<path d="M0 0 C0.94875 0.04125 1.8975 0.0825 2.875 0.125 C2.276875 0.3725 1.67875 0.62 1.0625 0.875 C-1.41147521 2.28870012 -2.55870255 3.77555383 -4.125 6.125 C-4.75 4.25 -4.75 4.25 -5.125 2.125 C-3.125 0.125 -3.125 0.125 0 0 Z " fill="#BBBCBB" transform="translate(241.125,940.875)"/>
<path d="M0 0 C3.68754757 0.49831724 5.60490662 1.10067643 8 4 C7.21625 3.79375 6.4325 3.5875 5.625 3.375 C4.75875 3.25125 3.8925 3.1275 3 3 C2.34 3.66 1.68 4.32 1 5 C0.67 3.35 0.34 1.7 0 0 Z " fill="#AEAEAE" transform="translate(126,351)"/>
<path d="M0 0 C0 3 0 3 -1 6 C-2.65 6.33 -4.3 6.66 -6 7 C-4.02 4.69 -2.04 2.38 0 0 Z " fill="#C4C3C5" transform="translate(559,283)"/>
</svg>
